<?xml version="1.0" encoding="UTF-8"?>
<svg id="Vrstva_1" xmlns="http://www.w3.org/2000/svg" version="1.1" viewBox="0 0 1888 2242">
  <!-- Generator: Adobe Illustrator 30.2.1, SVG Export Plug-In . SVG Version: 2.1.1 Build 1)  -->
  <defs>
    <style>
      .st0 {
        display: none;
        fill: #fff;
      }

      .st1 {
        fill: #307872;
      }
    </style>
  </defs>
  <path class="st0" d="M0,2242V0h1888v2242H0ZM817,703.63l18.81,19.63c57.04-47.21,123.2-76.44,196.03-84.38,33.68-3.67,67.31-5.48,97.65,8.22l27.24,12.31c12.8,5.78,28.66,1.93,44.89.01-148.85-119.74-362.17-119.25-510.04.6,63.57,6.57,44.2-9.23,93.59-18.33,31.42-5.79,62.8-5.55,94.36-.95l38.51-19.06c-25.67-8-49.82-9.53-74.18-10.75,68.42-19.2,139.5-18.74,206.54.19-87.73,3.44-166.26,38.09-233.39,92.52h0ZM1076.24,701.38c-22.01-17.11-42.36-30.35-65.97-42.34-13.37,2.74-25.12,5.41-37.58,10.28,39.15,18.91,72.22,38.75,103.19,67.17l.35-35.1h.01ZM556.17,924.35c4.88,81.7,45.89,148.69,112.22,197.03,1.51-11.43,1.53-21.74.56-32.97-121.27-104.59-107.45-262.89.1-371.77l-.45-37.7c-178.19,161.54-178.53,441.3.28,602.59l.61-37.36c-32.71-34.16-58.49-72.44-77.4-116.33,23.77,24.73,47.54,47.06,77.01,64.67l.3-31.47c-44.25-34.27-74.9-65.88-96.81-117.57-15.99-37.73-24.24-77.53-16.41-119.12h-.01ZM1216.28,885.99c87.81,62.2,107.82,187.27,63.83,282.43-11.62,25.14-28.91,44.84-45.72,65.47,10.61-25.54,20.98-49.48,27.13-76.8,11.71-52.07,12.08-105.69-4.39-157.37,2.65,25.16-1.39,49.99-14.26,72.84.7,39.21-4.99,77.11-18.8,114.02l.53,95.22c92.49-82.27,140-201.72,132.83-323.79-3.32-56.54-16.02-109.1-41.61-159.44-23.08-45.4-52.78-85.36-90.93-119.93l-.7,36.42c38.77,40.65,67.84,87.7,85.84,140.92l-20.18-21.83c-19.21-20.78-39.97-37.52-66.04-50.81l.15,30.44c55.86,35.21,92.4,89.62,106.72,153.41,7.62,33.95,9.04,66.49-.13,101.18-.09-91.51-41.48-176.29-125.01-220.34-37.9-19.59-76.91-30.43-119.18-37.39-60.94-10.04-121.11-16.08-182.45-10.24l22.43,25.38c87.61-1.77,217.07,8.62,289.93,60.23v-.02h.01ZM1128.09,1139.02l.86-269.12c-8.96-3.05-15.39-4.65-27.26-6.92l-.45,201.02-140.88-164.35-184.29-208.08-82.1.31.16,315.25c8.54,9.83,16.61,17.05,27.71,22.91v-309.96l43.57.31,134.44,151.73,228.24,266.92v-.02h0ZM1170.94,720.35l.1,89.39,27,10.76.21-128.69-96.85.12.17,99.6,27.06,5.23.46-77.53,41.86,1.13h-.01ZM696.29,1040.3c-9.47-7.71-24.36-27.96-30.11-38.83-2.98-5.63-3.46-8.6-11.67-11l-18.6-19.03c-9.1-4.14,4.74-56.41,12.16-69.48.32-41.9,8.23-80.13,19.64-120.41,5.25-18.52.08-40.41.11-61.03-44.98,77.37-59.58,169.52-35.55,254.07l11.15,39.23,6.57-1.1c-10.05,8.25,20.9,38.39,24.18,40.97,28.27,22.29,58.74,38.42,93.78,48.47l-3.93-14.12c-1.13-4.05-5.13-12.16-8.38-11.42-4.81,2.72-9.07,4.22-13.18,1.76-3.53-2.11-2.83-6.8.6-11.28-3.56-4.35-11.98-7.32-18.2-5.49l-.03-4.11c0-.09-24.73-17.14-28.55-17.2h0ZM1076.21,786.08l-.22-23.6c-25.6-13.11-49.49-24.04-75.6-33.96-14.75,4.25-26.91,7.5-41.78,14.99,34.21,10.84,64.74,22.1,96,38.41,5.88,3.07,14.13,3.3,21.61,4.16h-.01ZM1198.22,1268.29l-.08-367.48c-8.83-6.28-16.51-10.95-27.15-15.32l-.22,354.91-39.21.15-197.74-228.34-169.36-200.19-.35,239.22c9.81,4.03,17.69,6.87,27.15,9.25l.15-172.65,170.23,198.27,157.9,182.76,78.68-.57h0ZM764.24,1123.87l-.17,117.19-42.21-.22.04-132.69-27.78-14.59.03,175.32,97.38-.11-.24-136.07-27.05-8.82h0ZM901.12,1213.04c13.86-4.59,24.51-7.99,38.33-14.46-43.78-16.46-81.85-34.8-121.78-59.34l-.49,31.31c27.33,16.49,53.62,29.91,83.94,42.49h0ZM935.44,1240.86c-1.77-.6-7.47,2.62-11.51,5.23-2.74-1.38-8.42-4.82-11.71-6.15-25.1-10.12-11.5-5.92-40.33-4.22-1.63.1-5.78,1.8-5.68,3.31l.41,5.83c-17.5-11.85-31.95-23.06-49.28-37.52l-.34,35.11c24.23,19.24,47.85,35.59,74.69,50.91l34.71-12.14-37.42-21.14c15.63-1.71,29.16-4.48,41.64-8.78l4.82-10.45h0ZM1006.53,1312.27l-34.51,17.82c28.62,9.97,54.76,13.91,82.54,18.81-71.02,19.77-143.76,20.78-215.36-.64,86.01-10.25,163.11-44.91,230.42-102.09l-17.08-20.59c-75.07,66.02-223.94,129.89-316.85,74.26-13.84-.7-28.77-.52-44.13.84,149.75,120.84,359.17,121.37,510.76.27-13.67-1.53-30.82-3.19-43.77-.28-49.36,27.47-99.4,23.32-152.01,11.59h-.01ZM1360.93,1646.58l1.65,17.44,15.15-.4-.11-156.78-15.67-.77-.36,64.07c-11.37-14.65-25.6-21.59-43.73-20.15-27.95,2.22-48.42,25.67-48.85,54.01-1.5,21.84,7.27,43.39,26.14,54.54,22.63,13.37,50.04,8.2,65.75-11.97h.03,0ZM1416.1,1506.57c-7.13,3.04-8.02,11.08-4.96,16.84,2.09,3.93,8.76,6.53,14.59,3.86,3.99-1.82,6.57-9.49,4.92-14.18-1.94-5.52-8-9.31-14.55-6.52h0ZM740.26,1634.7c3.72-13.74,2.81-27.24-5.63-37.37-7.7-9.23-19.56-14.15-30.99-17.33l-35.85-9.99c-7.09-1.97-12.3-8.36-12.23-15,.29-25.59,52.42-20.55,70.31-5.17l9.98-24.39c-25.03-15.8-56.22-18.8-83.65-7.72-24.36,9.83-34.71,38.53-20.68,60.71,5.66,8.94,16.67,14.82,26.66,17.68l42.04,12.05c6.37,1.83,11.74,9.57,11.88,14.85.18,6.78-4.82,13.06-11.73,15.06-24.21,7.01-47.56.87-67.49-14.95l-10.77,24.82c30.86,25.88,107.11,27.54,118.15-13.24h0ZM1019.68,1661.15c18.1-6.83,26.11-22.79,25.06-40.04-.95-15.71-12.53-28.2-29.27-33.33l-39.15-12c-10.47-3.21-17.51-11.23-17.95-20.85-.44-9.66,4.35-19.69,14.21-23.86,20.08-8.49,41.57-4.86,60.19,9.16l5.69-14.45c-21.53-14.59-48.43-17.97-72.12-8.13-12.56,5.22-21.22,15.96-23.3,27.04-12.99,69.22,97.2,35.37,84.67,87.67-1.37,5.72-7.49,12.9-15.12,15.75-23.31,8.69-47.74,1.85-66.65-14.99-2.45,1.38-6.14,7.35-6.39,10.54-.77,9.94,41.17,32.2,80.13,17.5h0ZM464.32,1663.78v-149.82l-29.29-.04-.81,96.55-76.13-96.73-25.42.16.1,149.88,29.24.03.51-96.88,76.52,96.69,25.28.15h0ZM596.08,1599.77l-.3-24.74-69.87-.24.35-35.28h78.53l-.55-25.75-108.03-.05v150.17l111.14.02.6-25.58-82.02-.31.37-38.19,69.78-.05h0ZM826.71,1663.68l.07-124,47.75-.21-.32-25.84h-124.5l-.25,25.94,47.4.35.13,123.98,29.71-.21h0ZM1119.18,1648.15c-8.65,4.36-16.65,4.8-23.21,1.13-4.25-2.38-7.78-10.69-7.77-17.13l.06-66.91,30.36-.54c1.48-2.76,1.45-10.61-.05-13.44l-29.96-.41-.69-25.79-15.05.26-.22,25.17-16.68,1.28c-2.96.62-2.85,11.7-.21,12.49l16.98,1.24.27,68.56c.04,10.69,4.32,22.01,13.77,27.23,11.73,6.48,27.56,6.55,37.96-2.78,2.49-2.23-2.42-11.95-5.57-10.36h0ZM1562.83,1607c-.4-26.04-14.8-47.16-37.22-54.42-22.8-7.38-48.46.6-61.77,21.49-12.95,20.32-13.37,46.23-.86,66.66,13.36,21.8,39.21,30.1,62.71,22.38,22.96-7.54,37.54-29.55,37.14-56.11ZM1243.03,1553.28c-3.6-3.36-14.65-3.1-14.76.28l-.81,64.37c-.17,13.38-9.32,25.21-18.86,29.71-12.49,5.9-26.61,5.49-36.95-3.51-6.46-5.62-10.42-16.1-10.46-24.68l-.34-67.94-15.36.3.23,68.34c.04,12.35,4.56,26.14,13.75,34.3,20.47,18.19,50.64,14.19,68.02-6.44l1.38,16.16,14.28-1.12-.11-109.78h-.01ZM1428.53,1663.32l-.14-111.35c-5.67-.81-10.87-.87-15.74.02l.06,111.33c5.6.36,10.07.36,15.82,0Z"/>
  <path d="M1352.59,767.68c-110.87-78.55-307.86-94.34-441.17-91.65l-34.13-38.62c93.35-8.89,184.9.3,277.62,15.58,64.3,10.59,123.68,27.09,181.35,56.89,127.1,67.04,190.07,196.03,190.22,335.28,13.94-52.79,11.79-102.29.2-153.96-21.79-97.07-77.39-179.86-162.39-233.44l-.23-46.32c39.67,20.22,71.26,45.7,100.49,77.32l30.71,33.22c-27.39-80.98-71.64-152.56-130.62-214.43l1.07-55.42c58.05,52.59,103.24,113.39,138.36,182.49,38.94,76.6,58.28,156.58,63.32,242.61,10.91,185.76-61.38,367.52-202.12,492.69l-.81-144.89c21-56.16,29.67-113.83,28.61-173.5,19.58-34.77,25.72-72.55,21.7-110.84,25.05,78.64,24.5,160.23,6.68,239.46-9.36,41.57-25.14,78-41.28,116.86,25.56-31.38,51.89-61.37,69.57-99.62,66.94-144.8,36.49-335.1-97.13-429.76v.03h-.02Z"/>
  <path class="st1" d="M1325.11,1349.4l-119.72.87-240.27-278.1-259.03-301.7-.23,262.71c-14.39-3.62-26.39-7.94-41.31-14.08l.53-364.01,257.71,304.62,300.89,347.45,59.66-.23.33-540.05c16.19,6.65,27.88,13.76,41.31,23.31l.12,559.18h0v.02Z"/>
  <path class="st1" d="M1218.4,1152.7l-347.3-406.16-204.57-230.88-66.28-.47v471.65c-16.91-8.92-29.17-19.89-42.18-34.86l-.24-479.7,124.93-.47,280.42,316.62,214.37,250.08.68-305.88c18.06,3.45,27.85,5.87,41.48,10.53l-1.31,409.51v.03Z"/>
  <path d="M348.14,826.05c-11.91,63.29.64,123.85,24.97,181.26,33.34,78.65,79.98,126.75,147.31,178.9l-.46,47.89c-44.84-26.8-81.03-60.77-117.18-98.41,28.77,66.79,68.02,125.03,117.78,177.01l-.93,56.85c-272.09-245.43-271.58-671.12-.43-916.93l.68,57.37c-163.65,165.66-184.68,406.55-.15,565.7,1.48,17.09,1.45,32.78-.85,50.17-100.93-73.56-163.33-175.49-170.76-299.81h.02Z"/>
  <path d="M1033.43,1416.33c80.05,17.86,156.2,24.16,231.31-17.64,19.71-4.43,45.79-1.9,66.6.43-230.67,184.27-549.33,183.47-777.2-.41,23.39-2.08,46.11-2.34,67.15-1.28,141.36,84.65,367.9-12.54,482.13-113l25.99,31.33c-102.42,87.01-219.73,139.75-350.62,155.35,108.95,32.59,219.63,31.06,327.7.97-42.26-7.46-82.05-13.44-125.6-28.62l52.51-27.12h0l.02-.02Z"/>
  <path d="M745.03,490.19c102.13-82.82,221.64-135.53,355.14-140.78-102.01-28.8-210.17-29.5-314.28-.29,37.07,1.86,73.82,4.18,112.88,16.36l-58.6,29c-48.02-7-95.77-7.36-143.58,1.45-75.15,13.86-45.68,37.89-142.41,27.89,225.01-182.37,549.62-183.12,776.1-.91-24.7,2.92-48.83,8.78-68.31-.02l-41.45-18.73c-46.17-20.85-97.32-18.09-148.59-12.51-110.81,12.08-211.49,56.56-298.29,128.4l-28.62-29.87h0l.02.02Z"/>
  <polygon class="st1" points="208.38 1951.2 169.91 1950.97 53.47 1803.84 52.71 1951.26 8.22 1951.22 8.07 1723.14 46.75 1722.89 162.59 1870.08 163.81 1723.17 208.39 1723.23 208.38 1951.2"/>
  <polygon class="st1" points="408.87 1853.8 302.69 1853.89 302.12 1911.99 426.93 1912.46 426.02 1951.38 256.89 1951.37 256.9 1722.86 421.28 1722.92 422.12 1762.12 302.63 1762.12 302.09 1815.8 408.41 1816.17 408.87 1853.8"/>
  <polygon class="st1" points="664.75 1129.65 705.91 1143.07 706.27 1350.13 558.08 1350.3 558.04 1083.53 600.32 1105.73 600.26 1307.63 664.49 1307.97 664.75 1129.65"/>
  <path class="st1" d="M628.26,1906.95c-16.8,62.05-132.82,59.54-179.78,20.15l16.39-37.77c30.31,24.07,65.86,33.4,102.7,22.75,10.51-3.04,18.12-12.6,17.85-22.92-.21-8.02-8.38-19.81-18.08-22.6l-63.97-18.34c-15.2-4.35-31.97-13.3-40.57-26.9-21.35-33.75-5.6-77.42,31.47-92.38,41.74-16.84,89.2-12.29,127.29,11.75l-15.19,37.11c-27.22-23.42-106.55-31.09-106.99,7.87-.11,10.1,7.82,19.81,18.61,22.82l54.55,15.2c17.41,4.85,35.44,12.33,47.16,26.37,12.86,15.41,14.24,35.96,8.57,56.86h0v.02Z"/>
  <polygon class="st1" points="1283.6 515.63 1219.91 513.91 1219.21 631.88 1178.03 623.93 1177.77 472.37 1325.14 472.2 1324.84 668.02 1283.74 651.64 1283.6 515.63"/>
  <polygon class="st1" points="759.81 1951.05 714.58 1951.38 714.4 1762.73 642.27 1762.2 642.64 1722.74 832.08 1722.73 832.57 1762.04 759.91 1762.36 759.81 1951.05"/>
  <path d="M1572.7,1925.03c-23.91,30.68-65.63,38.54-100.05,18.21-28.73-16.97-42.07-49.76-39.78-82.99.65-43.12,31.8-78.81,74.33-82.18,27.59-2.19,49.24,8.38,66.54,30.66l.55-97.49,23.84,1.17.17,238.56-23.05.61-2.51-26.54h-.05v-.02ZM1568,1898.51c9.27-20.18,8.13-43.25.44-62.77-9.53-24.22-31.62-37.23-56.41-36.14-23.27,1.03-43.96,16.69-51.43,41.43-5.08,16.8-5.01,36.32,1,52.85,8.4,23.08,28.39,37.86,50.5,38.63,23.22.81,45.09-10.47,55.89-34.01Z"/>
  <path d="M1053.44,1947.2c-59.28,22.37-123.12-11.52-121.93-26.63.38-4.84,6-13.92,9.72-16.04,28.79,25.62,65.95,36.03,101.42,22.81,11.61-4.34,20.92-15.26,23.01-23.97,19.05-79.57-148.6-28.07-128.84-133.4,3.17-16.86,16.34-33.2,35.45-41.15,36.06-14.97,77-9.83,109.74,12.37l-8.66,21.99c-28.33-21.33-61.02-26.86-91.59-13.94-15,6.35-22.31,21.62-21.62,36.31.67,14.64,11.37,26.84,27.31,31.73l59.57,18.26c25.47,7.81,43.09,26.8,44.54,50.72,1.6,26.25-10.59,50.55-38.13,60.93h0v.02Z"/>
  <path d="M561.35,1002.48c5.81.09,43.44,26.04,43.44,26.17l.05,6.25c9.46-2.78,22.28,1.73,27.69,8.35-5.22,6.82-6.28,13.95-.91,17.16,6.24,3.74,12.74,1.46,20.06-2.68,4.95-1.13,11.03,11.21,12.75,17.38l5.98,21.49c-53.32-15.28-99.68-39.82-142.7-73.75-4.98-3.93-52.09-49.79-36.79-62.34l-10,1.67-16.97-59.69c-36.57-128.66-14.33-268.89,54.09-386.61-.05,31.36,7.81,64.67-.17,92.87-17.36,61.29-29.4,119.45-29.89,183.22-11.29,19.89-32.35,99.42-18.5,105.72l28.3,28.96c12.48,3.65,13.22,8.17,17.76,16.74,8.75,16.54,31.41,47.37,45.82,59.09h-.02Z"/>
  <path d="M1879.92,1864.8c.61,40.43-21.58,73.91-56.51,85.38-35.76,11.75-75.11-.88-95.42-34.05-19.05-31.09-18.4-70.51,1.31-101.43,20.25-31.79,59.3-43.93,93.99-32.7,34.12,11.05,56.03,43.17,56.64,82.81ZM1849.03,1899.36c7.71-15.93,7.96-34.37,5.05-50.79-4.63-26.14-24.19-45.03-47.58-48.25-26.05-3.59-49.82,8.83-61.08,33.16-9.22,19.92-9.1,42.99-.79,63.12,9.07,21.96,28.42,35.12,50.41,36.05,22.05.93,42.97-10.53,53.97-33.28h.02Z"/>
  <path d="M925.25,1307.66l-7.33,15.9c-18.99,6.54-39.58,10.76-63.36,13.36l56.94,32.17-52.82,18.47c-40.84-23.31-76.78-48.19-113.65-77.47l.52-53.43c26.37,22,48.36,39.06,74.99,57.09l-.62-8.87c-.15-2.3,6.15-4.9,8.64-5.04,43.87-2.59,23.17-8.98,61.37,6.42,5.01,2.02,13.66,7.26,17.82,9.36,6.15-3.97,14.82-8.89,17.51-7.96h0v-.02Z"/>
  <path d="M1393.3,1783.06l.17,167.05-21.73,1.7-2.1-24.59c-26.45,31.39-72.34,37.48-103.5,9.8-13.98-12.43-20.86-33.4-20.92-52.19l-.35-103.99,23.37-.46.52,103.38c.06,13.06,6.1,29,15.92,37.55,15.72,13.69,37.22,14.3,56.22,5.34,14.5-6.85,28.44-24.83,28.7-45.21l1.23-97.95c.17-5.14,17-5.55,22.46-.43h.02v-.02Z"/>
  <path d="M873.03,1265.33c-46.14-19.16-86.14-39.58-127.73-64.65l.75-47.64c60.76,37.34,118.69,65.26,185.31,90.29-21.01,9.85-37.23,15-58.32,22h0Z"/>
  <path d="M1204.84,1927.42c4.79-2.4,12.26,12.37,8.48,15.76-15.83,14.2-39.9,14.09-57.76,4.23-14.38-7.94-20.89-25.18-20.95-41.43l-.41-104.32-25.84-1.89c-4.02-1.22-4.18-18.06.32-19.01l25.38-1.95.33-38.3,22.9-.4,1.05,39.24,45.59.62c2.28,4.31,2.33,16.25.08,20.45l-46.2.82-.09,101.81c0,9.8,5.36,22.44,11.82,26.07,9.98,5.58,22.14,4.91,35.32-1.72h-.02Z"/>
  <path d="M1139.46,615.65c-11.4-1.31-23.94-1.66-32.88-6.33-47.57-24.83-94.02-41.95-146.08-58.45,22.63-11.4,41.15-16.34,63.57-22.81,39.73,15.09,76.08,31.73,115.04,51.68l.33,35.91h.02Z"/>
  <path d="M1139.5,486.77l-.53,53.41c-47.13-43.25-97.45-73.42-157.02-102.21,18.96-7.41,36.84-11.47,57.18-15.64,35.91,18.24,66.88,38.41,100.38,64.43h-.02v.02Z"/>
  <path d="M1675.57,1950.5c-8.75.56-15.55.55-24.07,0l-.09-169.41c7.41-1.35,15.32-1.26,23.95-.03l.21,169.44Z"/>
  <path d="M1656.65,1711.98c9.97-4.25,19.19,1.52,22.14,9.92,2.51,7.14-1.42,18.81-7.49,21.58-8.87,4.05-19.02.11-22.2-5.87-4.67-8.76-3.3-21,7.55-25.62h0Z"/>
  <path class="st0" d="M1357.84,1629.15c-7.11,15.47-21.47,22.88-36.73,22.35s-27.66-10.22-33.19-25.39c-3.95-10.86-4-23.68-.66-34.73,4.91-16.26,18.51-26.55,33.8-27.23,16.29-.73,30.81,7.83,37.07,23.75,5.05,12.83,5.8,28-.29,41.25Z"/>
  <path class="st0" d="M1542.53,1629.71c-7.23,14.95-20.99,22.48-35.47,21.87-14.45-.61-27.17-9.27-33.13-23.69-5.47-13.23-5.55-28.39.52-41.48,7.4-15.99,23.01-24.15,40.14-21.79,15.37,2.12,28.23,14.53,31.27,31.71,1.91,10.8,1.74,22.92-3.32,33.38h-.01Z"/>
</svg>