<?xml version="1.0" encoding="UTF-8"?>
<svg id="Vrstva_1" xmlns="http://www.w3.org/2000/svg" version="1.1" viewBox="0 0 1888 2242">
  <!-- Generator: Adobe Illustrator 30.2.1, SVG Export Plug-In . SVG Version: 2.1.1 Build 1)  -->
  <defs>
    <style>
      .st0 {
        display: none;
        fill: #fff;
      }

      .st1 {
        fill: #307872;
      }
    </style>
  </defs>
  <path class="st0" d="M0,2242V0h1888v2242H0ZM817,703.63l18.81,19.63c57.04-47.21,123.2-76.44,196.03-84.38,33.68-3.67,67.31-5.48,97.65,8.22l27.24,12.31c12.8,5.78,28.66,1.93,44.89.01-148.85-119.74-362.17-119.25-510.04.6,63.57,6.57,44.2-9.23,93.59-18.33,31.42-5.79,62.8-5.55,94.36-.95l38.51-19.06c-25.67-8-49.82-9.53-74.18-10.75,68.42-19.2,139.5-18.74,206.54.19-87.73,3.44-166.26,38.09-233.39,92.52h0ZM1076.24,701.38c-22.01-17.11-42.36-30.35-65.97-42.34-13.37,2.74-25.12,5.41-37.58,10.28,39.15,18.91,72.22,38.75,103.19,67.17l.35-35.1h.01ZM556.17,924.35c4.88,81.7,45.89,148.69,112.22,197.03,1.51-11.43,1.53-21.74.56-32.97-121.27-104.59-107.45-262.89.1-371.77l-.45-37.7c-178.19,161.54-178.53,441.3.28,602.59l.61-37.36c-32.71-34.16-58.49-72.44-77.4-116.33,23.77,24.73,47.54,47.06,77.01,64.67l.3-31.47c-44.25-34.27-74.9-65.88-96.81-117.57-15.99-37.73-24.24-77.53-16.41-119.12h-.01ZM1216.28,885.99c87.81,62.2,107.82,187.27,63.83,282.43-11.62,25.14-28.91,44.84-45.72,65.47,10.61-25.54,20.98-49.48,27.13-76.8,11.71-52.07,12.08-105.69-4.39-157.37,2.65,25.16-1.39,49.99-14.26,72.84.7,39.21-4.99,77.11-18.8,114.02l.53,95.22c92.49-82.27,140-201.72,132.83-323.79-3.32-56.54-16.02-109.1-41.61-159.44-23.08-45.4-52.78-85.36-90.93-119.93l-.7,36.42c38.77,40.65,67.84,87.7,85.84,140.92l-20.18-21.83c-19.21-20.78-39.97-37.52-66.04-50.81l.15,30.44c55.86,35.21,92.4,89.62,106.72,153.41,7.62,33.95,9.04,66.49-.13,101.18-.09-91.51-41.48-176.29-125.01-220.34-37.9-19.59-76.91-30.43-119.18-37.39-60.94-10.04-121.11-16.08-182.45-10.24l22.43,25.38c87.61-1.77,217.07,8.62,289.93,60.23v-.02ZM1128.09,1139.02l.86-269.12c-8.96-3.05-15.39-4.65-27.26-6.92l-.45,201.02-140.88-164.35-184.29-208.08-82.1.31.16,315.25c8.54,9.83,16.61,17.05,27.71,22.91v-309.96l43.57.31,134.44,151.73,228.24,266.92v-.02ZM1170.94,720.35l.1,89.39,27,10.76.21-128.69-96.85.12.17,99.6,27.06,5.23.46-77.53,41.86,1.13h-.01ZM696.29,1040.3c-9.47-7.71-24.36-27.96-30.11-38.83-2.98-5.63-3.46-8.6-11.67-11l-18.6-19.03c-9.1-4.14,4.74-56.41,12.16-69.48.32-41.9,8.23-80.13,19.64-120.41,5.25-18.52.08-40.41.11-61.03-44.98,77.37-59.58,169.52-35.55,254.07l11.15,39.23,6.57-1.1c-10.05,8.25,20.9,38.39,24.18,40.97,28.27,22.29,58.74,38.42,93.78,48.47l-3.93-14.12c-1.13-4.05-5.13-12.16-8.38-11.42-4.81,2.72-9.07,4.22-13.18,1.76-3.53-2.11-2.83-6.8.6-11.28-3.56-4.35-11.98-7.32-18.2-5.49l-.03-4.11c0-.09-24.73-17.14-28.55-17.2h0ZM1076.21,786.08l-.22-23.6c-25.6-13.11-49.49-24.04-75.6-33.96-14.75,4.25-26.91,7.5-41.78,14.99,34.21,10.84,64.74,22.1,96,38.41,5.88,3.07,14.13,3.3,21.61,4.16h-.01ZM1198.22,1268.29l-.08-367.48c-8.83-6.28-16.51-10.95-27.15-15.32l-.22,354.91-39.21.15-197.74-228.34-169.36-200.19-.35,239.22c9.81,4.03,17.69,6.87,27.15,9.25l.15-172.65,170.23,198.27,157.9,182.76,78.68-.57h0ZM764.24,1123.87l-.17,117.19-42.21-.22.04-132.69-27.78-14.59.03,175.32,97.38-.11-.24-136.07-27.05-8.82h0ZM901.12,1213.04c13.86-4.59,24.51-7.99,38.33-14.46-43.78-16.46-81.85-34.8-121.78-59.34l-.49,31.31c27.33,16.49,53.62,29.91,83.94,42.49h0ZM935.44,1240.86c-1.77-.6-7.47,2.62-11.51,5.23-2.74-1.38-8.42-4.82-11.71-6.15-25.1-10.12-11.5-5.92-40.33-4.22-1.63.1-5.78,1.8-5.68,3.31l.41,5.83c-17.5-11.85-31.95-23.06-49.28-37.52l-.34,35.11c24.23,19.24,47.85,35.59,74.69,50.91l34.71-12.14-37.42-21.14c15.63-1.71,29.16-4.48,41.64-8.78l4.82-10.45h0ZM1006.53,1312.27l-34.51,17.82c28.62,9.97,54.76,13.91,82.54,18.81-71.02,19.77-143.76,20.78-215.36-.64,86.01-10.25,163.11-44.91,230.42-102.09l-17.08-20.59c-75.07,66.02-223.94,129.89-316.85,74.26-13.84-.7-28.77-.52-44.13.84,149.75,120.84,359.17,121.37,510.76.27-13.67-1.53-30.82-3.19-43.77-.28-49.36,27.47-99.4,23.32-152.01,11.59h-.01ZM1360.93,1646.58l1.65,17.44,15.15-.4-.11-156.78-15.67-.77-.36,64.07c-11.37-14.65-25.6-21.59-43.73-20.15-27.95,2.22-48.42,25.67-48.85,54.01-1.5,21.84,7.27,43.39,26.14,54.54,22.63,13.37,50.04,8.2,65.75-11.97h.03ZM1416.1,1506.57c-7.13,3.04-8.02,11.08-4.96,16.84,2.09,3.93,8.76,6.53,14.59,3.86,3.99-1.82,6.57-9.49,4.92-14.18-1.94-5.52-8-9.31-14.55-6.52h0ZM740.26,1634.7c3.72-13.74,2.81-27.24-5.63-37.37-7.7-9.23-19.56-14.15-30.99-17.33l-35.85-9.99c-7.09-1.97-12.3-8.36-12.23-15,.29-25.59,52.42-20.55,70.31-5.17l9.98-24.39c-25.03-15.8-56.22-18.8-83.65-7.72-24.36,9.83-34.71,38.53-20.68,60.71,5.66,8.94,16.67,14.82,26.66,17.68l42.04,12.05c6.37,1.83,11.74,9.57,11.88,14.85.18,6.78-4.82,13.06-11.73,15.06-24.21,7.01-47.56.87-67.49-14.95l-10.77,24.82c30.86,25.88,107.11,27.54,118.15-13.24h0ZM1019.68,1661.15c18.1-6.83,26.11-22.79,25.06-40.04-.95-15.71-12.53-28.2-29.27-33.33l-39.15-12c-10.47-3.21-17.51-11.23-17.95-20.85-.44-9.66,4.35-19.69,14.21-23.86,20.08-8.49,41.57-4.86,60.19,9.16l5.69-14.45c-21.53-14.59-48.43-17.97-72.12-8.13-12.56,5.22-21.22,15.96-23.3,27.04-12.99,69.22,97.2,35.37,84.67,87.67-1.37,5.72-7.49,12.9-15.12,15.75-23.31,8.69-47.74,1.85-66.65-14.99-2.45,1.38-6.14,7.35-6.39,10.54-.77,9.94,41.17,32.2,80.13,17.5h0ZM464.32,1663.78v-149.82l-29.29-.04-.81,96.55-76.13-96.73-25.42.16.1,149.88,29.24.03.51-96.88,76.52,96.69,25.28.15h0ZM596.08,1599.77l-.3-24.74-69.87-.24.35-35.28h78.53l-.55-25.75-108.03-.05v150.17l111.14.02.6-25.58-82.02-.31.37-38.19,69.78-.05h0ZM826.71,1663.68l.07-124,47.75-.21-.32-25.84h-124.5l-.25,25.94,47.4.35.13,123.98,29.71-.21h0ZM1119.18,1648.15c-8.65,4.36-16.65,4.8-23.21,1.13-4.25-2.38-7.78-10.69-7.77-17.13l.06-66.91,30.36-.54c1.48-2.76,1.45-10.61-.05-13.44l-29.96-.41-.69-25.79-15.05.26-.22,25.17-16.68,1.28c-2.96.62-2.85,11.7-.21,12.49l16.98,1.24.27,68.56c.04,10.69,4.32,22.01,13.77,27.23,11.73,6.48,27.56,6.55,37.96-2.78,2.49-2.23-2.42-11.95-5.57-10.36h0ZM1562.83,1607c-.4-26.04-14.8-47.16-37.22-54.42-22.8-7.38-48.46.6-61.77,21.49-12.95,20.32-13.37,46.23-.86,66.66,13.36,21.8,39.21,30.1,62.71,22.38,22.96-7.54,37.54-29.55,37.14-56.11ZM1243.03,1553.28c-3.6-3.36-14.65-3.1-14.76.28l-.81,64.37c-.17,13.38-9.32,25.21-18.86,29.71-12.49,5.9-26.61,5.49-36.95-3.51-6.46-5.62-10.42-16.1-10.46-24.68l-.34-67.94-15.36.3.23,68.34c.04,12.35,4.56,26.14,13.75,34.3,20.47,18.19,50.64,14.19,68.02-6.44l1.38,16.16,14.28-1.12-.11-109.78h-.01ZM1428.53,1663.32l-.14-111.35c-5.67-.81-10.87-.87-15.74.02l.06,111.33c5.6.36,10.07.36,15.82,0Z"/>
  <path d="M1551,907.89c-163.93-116.14-455.21-139.5-652.34-135.52l-50.47-57.1c138.04-13.14,273.39.45,410.51,23.04,95.08,15.66,182.88,40.05,268.15,84.13,187.94,99.13,281.04,289.86,281.27,495.76,20.61-78.05,17.44-151.24.29-227.65-32.22-143.53-114.43-265.95-240.12-345.17l-.34-68.49c58.66,29.9,105.37,67.57,148.59,114.32l45.4,49.12c-40.5-119.74-105.93-225.58-193.14-317.07l1.57-81.94c85.84,77.76,152.66,167.67,204.59,269.84,57.58,113.26,86.17,231.52,93.62,358.74,16.13,274.68-90.76,543.44-298.86,728.52l-1.19-214.24c31.05-83.05,43.87-168.32,42.3-256.54,28.96-51.41,38.02-107.28,32.08-163.89,37.03,116.28,36.22,236.92,9.88,354.08-13.84,61.47-37.17,115.33-61.04,172.8,37.8-46.39,76.72-90.74,102.87-147.31,98.98-214.11,53.95-495.49-143.62-635.46l-.02.04Z"/>
  <path class="st1" d="M1510.36,1768.05l-177.03,1.28-355.27-411.21-383.01-446.1-.34,388.46c-21.28-5.35-39.01-11.74-61.09-20.81l.79-538.24,381.06,450.42,444.91,513.76,88.22-.34.49-798.54c23.94,9.83,41.22,20.34,61.09,34.47l.18,826.82v.02Z"/>
  <path class="st1" d="M1352.57,1477.2l-513.53-600.56-302.49-341.39-98.01-.7v697.4c-25-13.18-43.13-29.41-62.37-51.55l-.36-709.3,184.72-.7,414.65,468.17,316.98,369.78,1.01-452.29c26.71,5.11,41.17,8.68,61.33,15.57l-1.93,605.51v.05Z"/>
  <path d="M65.77,994.2c-17.62,93.58.94,183.13,36.92,268.02,49.3,116.3,118.26,187.42,217.82,264.53l-.67,70.81c-66.31-39.62-119.81-89.86-173.27-145.51,42.55,98.75,100.57,184.88,174.15,261.74l-1.37,84.06c-402.32-362.9-401.58-992.35-.63-1355.81l1.01,84.82c-241.98,244.95-273.08,601.15-.22,836.47,2.18,25.27,2.14,48.46-1.26,74.18-149.24-108.76-241.51-259.49-252.49-443.31h.02Z"/>
  <path d="M1079.07,1867.01c118.37,26.41,230.96,35.73,342.02-26.08,29.14-6.55,67.7-2.81,98.48.63-341.07,272.47-812.26,271.28-1149.2-.61,34.58-3.08,68.17-3.47,99.29-1.89,209.02,125.17,544-18.54,712.9-167.08l38.43,46.33c-151.45,128.65-324.9,206.64-518.44,229.7,161.1,48.19,324.76,45.92,484.55,1.44-62.48-11.02-121.32-19.87-185.71-42.32l77.65-40.09.02-.02Z"/>
  <path d="M652.63,497.58c151.02-122.47,327.73-200.41,525.12-208.17-150.84-42.59-310.77-43.63-464.71-.43,54.81,2.74,109.15,6.19,166.9,24.19l-86.65,42.88c-71.01-10.35-141.61-10.89-212.31,2.14-111.13,20.5-67.54,56.02-210.58,41.24,332.7-269.66,812.69-270.76,1147.58-1.35-36.52,4.32-72.2,12.98-101-.02l-61.29-27.7c-68.26-30.82-143.91-26.75-219.71-18.49-163.84,17.86-312.72,83.63-441.06,189.85l-42.32-44.17.02.02Z"/>
  <polygon class="st1" points="533.92 1443.11 594.78 1462.96 595.32 1769.13 376.2 1769.38 376.13 1374.91 438.66 1407.74 438.57 1706.29 533.54 1706.79 533.92 1443.11"/>
  <polygon class="st1" points="1448.98 535.2 1354.8 532.66 1353.77 707.1 1292.88 695.33 1292.5 471.23 1510.41 470.99 1509.96 760.54 1449.19 736.3 1448.98 535.2"/>
  <path d="M381.03,1255.08c8.59.14,64.24,38.5,64.24,38.7l.07,9.25c13.99-4.12,32.94,2.57,40.95,12.35-7.72,10.08-9.29,20.63-1.35,25.38,9.22,5.53,18.83,2.16,29.65-3.96,7.31-1.66,16.31,16.58,18.85,25.69l8.84,31.77c-78.84-22.59-147.4-58.88-211-109.06-7.36-5.8-77.02-73.62-54.4-92.18l-14.78,2.47-25.09-88.27c-54.07-190.24-21.19-397.59,79.99-571.65-.07,46.37,11.54,95.62-.25,137.32-25.67,90.63-43.47,176.62-44.19,270.92-16.69,29.41-47.83,147.01-27.36,156.33l41.85,42.82c18.45,5.4,19.55,12.08,26.26,24.75,12.94,24.46,46.44,70.04,67.75,87.37h-.02Z"/>
  <path d="M919.12,1706.34l-10.84,23.51c-28.08,9.67-58.52,15.91-93.69,19.75l84.19,47.56-78.1,27.31c-60.39-34.47-113.53-71.26-168.05-114.55l.77-79c38.99,32.53,71.5,57.76,110.88,84.42l-.92-13.12c-.22-3.4,9.09-7.24,12.78-7.45,64.87-3.82,34.27-13.27,90.74,9.49,7.4,2.99,20.2,10.73,26.35,13.84,9.09-5.87,21.91-13.14,25.9-11.77v-.02Z"/>
  <path d="M841.9,1643.74c-68.22-28.33-127.37-58.52-188.86-95.6l1.1-70.45c89.84,55.21,175.5,96.5,274,133.51-31.07,14.56-55.06,22.18-86.24,32.53h0Z"/>
  <path d="M1235.84,683.09c-16.85-1.93-35.39-2.45-48.62-9.36-70.33-36.72-139.03-62.03-216-86.42,33.46-16.85,60.84-24.16,94-33.73,58.75,22.32,112.5,46.91,170.1,76.41l.49,53.1h.02Z"/>
  <path d="M1235.91,492.52l-.79,78.97c-69.68-63.94-144.09-108.56-232.17-151.13,28.03-10.96,54.47-16.96,84.55-23.13,53.1,26.98,98.89,56.79,148.43,95.26l-.02.02Z"/>
</svg>