<?xml version="1.0" encoding="UTF-8"?>
<svg id="Vrstva_1" data-name="Vrstva 1" xmlns="http://www.w3.org/2000/svg" viewBox="0 0 1888 2242">
  <defs>
    <style>
      .cls-1 {
        fill: #fff;
      }

      .cls-2 {
        fill: #307872;
      }
    </style>
  </defs>
  <path class="cls-1" d="M0,2242V0h1888v2242H0ZM817,703.63l18.81,19.63c57.04-47.21,123.2-76.44,196.03-84.38,33.68-3.67,67.31-5.48,97.65,8.22l27.24,12.31c12.8,5.78,28.66,1.93,44.89.01-148.85-119.74-362.17-119.25-510.04.6,63.57,6.57,44.2-9.23,93.59-18.33,31.42-5.79,62.8-5.55,94.36-.95l38.51-19.06c-25.67-8-49.82-9.53-74.18-10.75,68.42-19.2,139.5-18.74,206.54.19-87.73,3.44-166.26,38.09-233.39,92.52ZM1076.24,701.38c-22.01-17.11-42.36-30.35-65.97-42.34-13.37,2.74-25.12,5.41-37.58,10.28,39.15,18.91,72.22,38.75,103.19,67.17l.35-35.1ZM556.17,924.35c4.88,81.7,45.89,148.69,112.22,197.03,1.51-11.43,1.53-21.74.56-32.97-121.27-104.59-107.45-262.89.1-371.77l-.45-37.7c-178.19,161.54-178.53,441.3.28,602.59l.61-37.36c-32.71-34.16-58.49-72.44-77.4-116.33,23.77,24.73,47.54,47.06,77.01,64.67l.3-31.47c-44.25-34.27-74.9-65.88-96.81-117.57-15.99-37.73-24.24-77.53-16.41-119.12ZM1216.28,885.99c87.81,62.2,107.82,187.27,63.83,282.43-11.62,25.14-28.91,44.84-45.72,65.47,10.61-25.54,20.98-49.48,27.13-76.8,11.71-52.07,12.08-105.69-4.39-157.37,2.65,25.16-1.39,49.99-14.26,72.84.7,39.21-4.99,77.11-18.8,114.02l.53,95.22c92.49-82.27,140-201.72,132.83-323.79-3.32-56.54-16.02-109.1-41.61-159.44-23.08-45.4-52.78-85.36-90.93-119.93l-.7,36.42c38.77,40.65,67.84,87.7,85.84,140.92l-20.18-21.83c-19.21-20.78-39.97-37.52-66.04-50.81l.15,30.44c55.86,35.21,92.4,89.62,106.72,153.41,7.62,33.95,9.04,66.49-.13,101.18-.09-91.51-41.48-176.29-125.01-220.34-37.9-19.59-76.91-30.43-119.18-37.39-60.94-10.04-121.11-16.08-182.45-10.24l22.43,25.38c87.61-1.77,217.07,8.62,289.93,60.23ZM1128.09,1139.02l.86-269.12c-8.96-3.05-15.39-4.65-27.26-6.92l-.45,201.02-140.88-164.35-184.29-208.08-82.1.31.16,315.25c8.54,9.83,16.61,17.05,27.71,22.91v-309.96s43.57.31,43.57.31l134.44,151.73,228.24,266.92ZM1170.94,720.35l.1,89.39,27,10.76.21-128.69-96.85.12.17,99.6,27.06,5.23.46-77.53,41.86,1.13ZM696.29,1040.3c-9.47-7.71-24.36-27.96-30.11-38.83-2.98-5.63-3.46-8.6-11.67-11l-18.6-19.03c-9.1-4.14,4.74-56.41,12.16-69.48.32-41.9,8.23-80.13,19.64-120.41,5.25-18.52.08-40.41.11-61.03-44.98,77.37-59.58,169.52-35.55,254.07l11.15,39.23,6.57-1.1c-10.05,8.25,20.9,38.39,24.18,40.97,28.27,22.29,58.74,38.42,93.78,48.47l-3.93-14.12c-1.13-4.05-5.13-12.16-8.38-11.42-4.81,2.72-9.07,4.22-13.18,1.76-3.53-2.11-2.83-6.8.6-11.28-3.56-4.35-11.98-7.32-18.2-5.49l-.03-4.11c0-.09-24.73-17.14-28.55-17.2ZM1076.21,786.08l-.22-23.6c-25.6-13.11-49.49-24.04-75.6-33.96-14.75,4.25-26.91,7.5-41.78,14.99,34.21,10.84,64.74,22.1,96,38.41,5.88,3.07,14.13,3.3,21.61,4.16ZM1198.22,1268.29l-.08-367.48c-8.83-6.28-16.51-10.95-27.15-15.32l-.22,354.91-39.21.15-197.74-228.34-169.36-200.19-.35,239.22c9.81,4.03,17.69,6.87,27.15,9.25l.15-172.65,170.23,198.27,157.9,182.76,78.68-.57ZM764.24,1123.87l-.17,117.19-42.21-.22.04-132.69-27.78-14.59.03,175.32,97.38-.11-.24-136.07-27.05-8.82ZM901.12,1213.04c13.86-4.59,24.51-7.99,38.33-14.46-43.78-16.46-81.85-34.8-121.78-59.34l-.49,31.31c27.33,16.49,53.62,29.91,83.94,42.49ZM935.44,1240.86c-1.77-.6-7.47,2.62-11.51,5.23-2.74-1.38-8.42-4.82-11.71-6.15-25.1-10.12-11.5-5.92-40.33-4.22-1.63.1-5.78,1.8-5.68,3.31l.41,5.83c-17.5-11.85-31.95-23.06-49.28-37.52l-.34,35.11c24.23,19.24,47.85,35.59,74.69,50.91l34.71-12.14-37.42-21.14c15.63-1.71,29.16-4.48,41.64-8.78l4.82-10.45ZM1006.53,1312.27l-34.51,17.82c28.62,9.97,54.76,13.91,82.54,18.81-71.02,19.77-143.76,20.78-215.36-.64,86.01-10.25,163.11-44.91,230.42-102.09l-17.08-20.59c-75.07,66.02-223.94,129.89-316.85,74.26-13.84-.7-28.77-.52-44.13.84,149.75,120.84,359.17,121.37,510.76.27-13.67-1.53-30.82-3.19-43.77-.28-49.36,27.47-99.4,23.32-152.01,11.59ZM1360.93,1646.58l1.65,17.44,15.15-.4-.11-156.78-15.67-.77-.36,64.07c-11.37-14.65-25.6-21.59-43.73-20.15-27.95,2.22-48.42,25.67-48.85,54.01-1.5,21.84,7.27,43.39,26.14,54.54,22.63,13.37,50.04,8.2,65.75-11.97ZM1416.1,1506.57c-7.13,3.04-8.02,11.08-4.96,16.84,2.09,3.93,8.76,6.53,14.59,3.86,3.99-1.82,6.57-9.49,4.92-14.18-1.94-5.52-8-9.31-14.55-6.52ZM740.26,1634.7c3.72-13.74,2.81-27.24-5.63-37.37-7.7-9.23-19.56-14.15-30.99-17.33l-35.85-9.99c-7.09-1.97-12.3-8.36-12.23-15,.29-25.59,52.42-20.55,70.31-5.17l9.98-24.39c-25.03-15.8-56.22-18.8-83.65-7.72-24.36,9.83-34.71,38.53-20.68,60.71,5.66,8.94,16.67,14.82,26.66,17.68l42.04,12.05c6.37,1.83,11.74,9.57,11.88,14.85.18,6.78-4.82,13.06-11.73,15.06-24.21,7.01-47.56.87-67.49-14.95l-10.77,24.82c30.86,25.88,107.11,27.54,118.15-13.24ZM1019.68,1661.15c18.1-6.83,26.11-22.79,25.06-40.04-.95-15.71-12.53-28.2-29.27-33.33l-39.15-12c-10.47-3.21-17.51-11.23-17.95-20.85-.44-9.66,4.35-19.69,14.21-23.86,20.08-8.49,41.57-4.86,60.19,9.16l5.69-14.45c-21.53-14.59-48.43-17.97-72.12-8.13-12.56,5.22-21.22,15.96-23.3,27.04-12.99,69.22,97.2,35.37,84.67,87.67-1.37,5.72-7.49,12.9-15.12,15.75-23.31,8.69-47.74,1.85-66.65-14.99-2.45,1.38-6.14,7.35-6.39,10.54-.77,9.94,41.17,32.2,80.13,17.5ZM464.32,1663.78v-149.82s-29.29-.04-29.29-.04l-.81,96.55-76.13-96.73-25.42.16.1,149.88,29.24.03.51-96.88,76.52,96.69,25.28.15ZM596.08,1599.77l-.3-24.74-69.87-.24.35-35.28h78.53s-.55-25.75-.55-25.75l-108.03-.05v150.17s111.14.02,111.14.02l.6-25.58-82.02-.31.37-38.19,69.78-.05ZM826.71,1663.68l.07-124,47.75-.21-.32-25.84h-124.5s-.25,25.94-.25,25.94l47.4.35.13,123.98,29.71-.21ZM1119.18,1648.15c-8.65,4.36-16.65,4.8-23.21,1.13-4.25-2.38-7.78-10.69-7.77-17.13l.06-66.91,30.36-.54c1.48-2.76,1.45-10.61-.05-13.44l-29.96-.41-.69-25.79-15.05.26-.22,25.17-16.68,1.28c-2.96.62-2.85,11.7-.21,12.49l16.98,1.24.27,68.56c.04,10.69,4.32,22.01,13.77,27.23,11.73,6.48,27.56,6.55,37.96-2.78,2.49-2.23-2.42-11.95-5.57-10.36ZM1562.83,1607c-.4-26.04-14.8-47.16-37.22-54.42-22.8-7.38-48.46.6-61.77,21.49-12.95,20.32-13.37,46.23-.86,66.66,13.36,21.8,39.21,30.1,62.71,22.38,22.96-7.54,37.54-29.55,37.14-56.11ZM1243.03,1553.28c-3.6-3.36-14.65-3.1-14.76.28l-.81,64.37c-.17,13.38-9.32,25.21-18.86,29.71-12.49,5.9-26.61,5.49-36.95-3.51-6.46-5.62-10.42-16.1-10.46-24.68l-.34-67.94-15.36.3.23,68.34c.04,12.35,4.56,26.14,13.75,34.3,20.47,18.19,50.64,14.19,68.02-6.44l1.38,16.16,14.28-1.12-.11-109.78ZM1428.53,1663.32l-.14-111.35c-5.67-.81-10.87-.87-15.74.02l.06,111.33c5.6.36,10.07.36,15.82,0Z"/>
  <path d="M1216.28,885.99c-72.86-51.62-202.32-62-289.93-60.23l-22.43-25.38c61.35-5.84,121.51.2,182.45,10.24,42.26,6.96,81.28,17.8,119.18,37.39,83.53,44.06,124.91,128.83,125.01,220.34,9.16-34.69,7.75-67.22.13-101.18-14.32-63.79-50.86-118.2-106.72-153.41l-.15-30.44c26.07,13.29,46.83,30.03,66.04,50.81l20.18,21.83c-18-53.22-47.08-100.26-85.84-140.92l.7-36.42c38.15,34.56,67.85,74.52,90.93,119.93,25.59,50.34,38.3,102.9,41.61,159.44,7.17,122.08-40.34,241.53-132.83,323.79l-.53-95.22c13.8-36.91,19.5-74.81,18.8-114.02,12.87-22.85,16.9-47.68,14.26-72.84,16.46,51.68,16.1,105.3,4.39,157.37-6.15,27.32-16.52,51.26-27.13,76.8,16.8-20.62,34.1-40.33,45.72-65.47,43.99-95.16,23.98-220.22-63.83-282.43Z"/>
  <path class="cls-2" d="M1198.22,1268.29l-78.68.57-157.9-182.76-170.23-198.27-.15,172.65c-9.46-2.38-17.34-5.22-27.15-9.25l.35-239.22,169.36,200.19,197.74,228.34,39.21-.15.22-354.91c10.64,4.37,18.32,9.04,27.15,15.32l.08,367.48Z"/>
  <path class="cls-2" d="M1128.09,1139.02l-228.24-266.92-134.44-151.73-43.56-.31v309.96c-11.11-5.86-19.17-13.07-27.72-22.91l-.16-315.25,82.1-.31,184.29,208.08,140.88,164.35.45-201.02c11.87,2.27,18.3,3.86,27.26,6.92l-.86,269.12Z"/>
  <path d="M556.17,924.35c-7.83,41.59.42,81.39,16.41,119.12,21.91,51.69,52.56,83.3,96.81,117.57l-.3,31.47c-29.47-17.61-53.25-39.94-77.01-64.67,18.91,43.89,44.7,82.17,77.4,116.33l-.61,37.36c-178.81-161.29-178.48-441.05-.28-602.59l.45,37.7c-107.55,108.87-121.37,267.18-.1,371.77.97,11.23.95,21.54-.56,32.97-66.33-48.34-107.34-115.33-112.22-197.03Z"/>
  <path d="M1006.53,1312.27c52.61,11.74,102.65,15.88,152.01-11.59,12.95-2.91,30.09-1.25,43.77.28-151.59,121.1-361.01,120.57-510.76-.27,15.37-1.37,30.3-1.54,44.13-.84,92.9,55.63,241.78-8.24,316.85-74.26l17.08,20.59c-67.31,57.18-144.4,91.84-230.42,102.09,71.6,21.42,144.34,20.41,215.36.64-27.77-4.9-53.92-8.83-82.54-18.81l34.51-17.82Z"/>
  <path d="M817,703.63c67.12-54.43,145.66-89.07,233.39-92.52-67.04-18.93-138.12-19.39-206.54-.19,24.36,1.22,48.51,2.75,74.18,10.75l-38.51,19.06c-31.56-4.6-62.94-4.84-94.36.95-49.39,9.11-30.02,24.9-93.59,18.33,147.87-119.85,361.2-120.34,510.04-.6-16.23,1.92-32.09,5.77-44.89-.01l-27.24-12.31c-30.34-13.7-63.96-11.89-97.65-8.22-72.82,7.94-138.99,37.17-196.03,84.38l-18.81-19.63Z"/>
  <polygon class="cls-2" points="764.24 1123.87 791.29 1132.69 791.53 1268.77 694.14 1268.88 694.11 1093.56 721.9 1108.15 721.86 1240.84 764.07 1241.06 764.24 1123.87"/>
  <polygon class="cls-2" points="1170.94 720.35 1129.08 719.22 1128.62 796.75 1101.56 791.52 1101.39 691.92 1198.24 691.81 1198.04 820.5 1171.03 809.73 1170.94 720.35"/>
  <path d="M696.29,1040.3c3.82.06,28.55,17.11,28.55,17.2l.03,4.11c6.22-1.83,14.64,1.14,18.2,5.49-3.43,4.48-4.13,9.17-.6,11.28,4.1,2.46,8.37.96,13.18-1.76,3.25-.74,7.25,7.37,8.38,11.42l3.93,14.12c-35.04-10.04-65.51-26.17-93.78-48.47-3.27-2.58-34.23-32.72-24.18-40.97l-6.57,1.1-11.15-39.23c-24.03-84.55-9.42-176.71,35.55-254.07-.03,20.61,5.13,42.5-.11,61.03-11.41,40.28-19.32,78.5-19.64,120.41-7.42,13.07-21.26,65.34-12.16,69.48l18.6,19.03c8.2,2.4,8.69,5.37,11.67,11,5.75,10.87,20.64,31.13,30.11,38.83Z"/>
  <path d="M935.44,1240.86l-4.82,10.45c-12.48,4.3-26.01,7.07-41.64,8.78l37.42,21.14-34.71,12.14c-26.84-15.32-50.46-31.67-74.69-50.91l.34-35.11c17.33,14.46,31.78,25.67,49.28,37.52l-.41-5.83c-.1-1.51,4.04-3.22,5.68-3.31,28.83-1.7,15.23-5.9,40.33,4.22,3.29,1.33,8.98,4.77,11.71,6.15,4.04-2.61,9.74-5.84,11.51-5.23Z"/>
  <path d="M901.12,1213.04c-30.32-12.59-56.61-26.01-83.94-42.49l.49-31.31c39.93,24.54,78,42.89,121.78,59.34-13.81,6.47-24.47,9.86-38.33,14.46Z"/>
  <path d="M1076.21,786.08c-7.49-.86-15.73-1.09-21.61-4.16-31.26-16.32-61.79-27.57-96-38.41,14.87-7.49,27.04-10.74,41.78-14.99,26.11,9.92,50,20.85,75.6,33.96l.22,23.6Z"/>
  <path d="M1076.24,701.38l-.35,35.1c-30.97-28.42-64.04-48.25-103.19-67.17,12.46-4.87,24.21-7.54,37.58-10.28,23.6,11.99,43.95,25.24,65.97,42.34Z"/>
</svg>