<?xml version="1.0" encoding="UTF-8"?>
<svg id="Vrstva_1" xmlns="http://www.w3.org/2000/svg" version="1.1" viewBox="0 0 319.2 98.64">
  <!-- Generator: Adobe Illustrator 30.2.1, SVG Export Plug-In . SVG Version: 2.1.1 Build 1)  -->
  <defs>
    <style>
      .st0 {
        display: none;
        fill: #fff;
      }

      .st1 {
        fill: #307872;
      }
    </style>
  </defs>
  <path class="st0" d="M0,46.21V0h319.2v98.64h-56.6c.05-.67.02-1.76-.13-2.3-.78-.27-.9.47-.9,1.22l-3.22.11v-3.29l2.71-.1c.21-.09.11-.92-.14-.92h-2.57v-2.8s3.12.02,3.12.02l.18.79c.04.19.37.32.81.41l.16-2.26-6.52.07c.14.69.46.79,1.09.99l-.02,6.96c-.46.13-.93.18-.94.36l-.03.73h-3.44l.1-7.99c.52-.19.91-.39,1.05-1.07h-3.1c-.32.23.24.97.82.98l-.03,5.62-4.25-6.53c-.66-.15-1.59-.12-2.26.04.04.5.45.75,1.05.92v6.91c-.43.14-.93.21-.94.39l-.03.73h-2.72c.02-.14.12-.65-.04-.73l-.88-.44c-.05-2.06-.06-4.55.02-6.72,0-.31,1.29-.36.99-1.15l-3.17-.07c-.02.19-.08.7.05.75l.92.35v6.91c-.4.12-.93.18-.94.36l-.03.73h-11.32l.16-.67c.05-.19-.69-.21-.94-.27l-2.31-3.4c.92-.39,1.72-1.01,1.86-1.83.16-.97.05-2.22-1.04-2.57-1.56-.5-3.43-.34-5.02-.29-.03.18-.13.62,0,.67l.94.33v6.98c-.45.11-.94.16-.95.33l-.03.73h-1.77l-.03-.72c0-.18-.62-.32-.84-.43l-2.75-7.72c-.26-.2-.97-.22-1.31-.07l-2.81,7.83c-.27.1-.83.21-.83.39l-.03.73h-1.01l.13-.82c-.3-.07-1.13-.2-1.34-.49l-2.77-3.72,2.73-2.93c.22-.23,1.26-.39.91-.92-.29-.44-1.38-.1-1.74.28l-3.05,3.22-.09-2.63.77-.23c.19-.05.26-.85.05-.85l-3.01.06c0,.69.49.88,1.05,1.1l-.03,6.83c-.46.13-.92.19-.93.36l-.03.73h-20.08c.59-.77-.7-.79-.85-1.21l-2.8-7.71c-.25-.15-.96-.18-1.28-.08l-2.81,7.83-.8.42c-.17.09-.05.61-.03.75h-3.3c.02-.14.14-.68-.04-.76l-.93-.39-.03-6.98c.75.01,1.58.06,2.1.13l.14.91c.02.15.42.17.76.19l.15-2.2h-7.33c-.07.55-.05,1.6.09,2.08.04.15.76.11.77-.05l.07-.95,2.13-.1-.04,7-.96.38c-.17.07-.05.61-.03.74h-3.64c.02-.62,0-1.65-.07-2.2-.02-.19-.74-.18-.78,0l-.22,1.01c-.68.27-1.96.25-2.79.09l.03-6.95.79-.21c.18-.05.27-.66.16-.81l-3.02-.03c-.05.17-.11.69.02.74l.89.36v6.84c-.41.16-.87.26-.92.43s-.04.52-.04.72h-5.31c1.24-.65,2.03-1.58,2.03-3.11v-4.88l.76-.24c.19-.06.25-.84.05-.84h-2.93c0,.8.38.9,1.02,1.09v5.28c0,1.2-1.01,1.8-2.04,1.72-1.42-.1-2.06-1.03-2.05-2.39l.06-4.65.77-.26c.18-.06.21-.56.19-.83l-3.09.05c-.26.43.34.91.92,1.05l.03,5.11c0,1.38.65,2.24,1.72,2.88h-4.32l.22-.88c-.39-.06-1.17-.15-1.39-.44l-2.76-3.72,2.65-2.82c.24-.25,1.3-.64,1.03-.96-.61-.74-1.58.04-2.04.52l-2.83,2.94-.02-2.55.84-.38c.17-.08.19-.54.16-.8h-2.99c-.15.02-.24.71-.1.76l.92.35-.02,6.8-.88.43c-.17.08-.06.61-.04.75h-1.86c.02-.14.13-.66-.03-.75l-.81-.42-2.8-7.83c-.32-.11-1.04-.09-1.28.09l-2.75,7.67c-.21.12-.63.33-.78.41-.19.1-.13.61-.12.81h-4.21c0-.09.15-.71-.03-.77l-1.12-.32-.06-3.07,2.21-.05c.15,0,.5-.31.48-.44s-.16-.51-.3-.52l-2.36-.08-.03-2.81,3.11.02.16.95c.03.19.62.2.84.11l.04-2.11h-6.2c-.05.19-.08.67.05.71l.86.32-.02,6.9c-.39.16-.86.25-.9.43s-.04.52-.04.72H0v-47.4c.39,3.47.73,6.95,1.67,10.32,6.66,23.91,30.02,38.83,54.31,35.09,24.29-3.74,41.92-24.97,41.13-49.5C96.35,22.93,77.59,1.68,52.89.42l-2.31-.12c-1.34-.07-2.7-.08-4.04,0l-2.16.12C21.99,1.62,2.95,19.32.51,41.57l-.51,4.64ZM216.41,15.66l3.06-2.07-1.41-1.87-3.6,3.14c.15.83,1.27,1.26,1.95.8h0ZM128.46,28.97c1.59-6.6-6.52-5.14-7.45-8.14-.21-.69-.07-1.75.57-2.1,1.14-.61,2.54-.32,3.63.11l.33,1.61,2.16-.1.26-3.46c-3.29-.69-9.64-1.56-9.94,3.21-.14,2.22.97,3.91,3,4.7l3.62,1.4c.84.32,1.28,1.32,1.18,2.11-.1.74-.76,1.41-1.58,1.65-1.21.35-2.5.09-3.57-.53l-.3-1.92h-2.19l-.26,3.67c2.96,1.56,9.59,1.72,10.54-2.22h0ZM188.34,28.61c1.12-6.3-6.53-4.7-7.57-7.87-.18-.55-.02-1.64.58-1.98,1.11-.64,2.49-.32,3.62.04l.39,1.65,2.14-.03.25-3.55c-2.18-.33-4.2-.67-6.23-.42-2.37.29-3.91,2.08-3.71,4.39.15,1.69,1,3.16,2.62,3.79l3.76,1.47c.9.35,1.46,1.14,1.42,2.04-.04.85-.69,1.59-1.65,1.86-1.17.32-2.5,0-3.51-.54l-.32-1.94h-2.19l-.22,3.74c3.4,1.54,9.86,1.62,10.61-2.64h.01ZM143.17,27.6h-1.85l-.36,2.1-3.91-.02v-11.02l1.73-.4.09-1.73h-6.25l.06,1.73,1.56.46v10.91c-.32.21-.95.48-1.37.65-.39.16-.31,1.29-.07,1.68h10.48l-.11-4.36h0ZM151.08,29.71v-4.59h4.53v-2.29l-4.54-.02.04-4.02,4.54.05.46,1.77c.11.42,1.5.3,1.77.04l.17-4.12h-11.24c-.15.49-.2,1.49.17,1.63l1.35.49v10.91c-.28.29-.85.53-1.36.7-.41.14-.35,1.34,0,1.71h11.12l-.11-4.34-1.89.04-.32,2.02-4.69.04v-.02ZM173.86,31.97l-.16-4.36h-1.85l-.37,2.09-5.64-.03,7.58-11.01v-2.13h-10.74l.11,4.3,1.9-.07.37-2.02,4.83.03-7.41,10.8c-.31.45-.16,1.62-.1,2.37l11.49.02h0ZM206.24,29.82c-1.27.24-1.96,0-2.5-.74l-4.16-5.69,3.98-4.35c.36-.4,1.23-.54,1.89-.66l.02-1.74c-.95-.14-2.53-.32-3.32.55l-5.28,5.83-.03-4.33,1.71-.49.02-1.68-6.16.03.04,1.68,1.56.48v11.12l-1.58.5c-.04.31,0,1.19.05,1.63h5.91c.25-.37.32-1.54-.08-1.67s-1.11-.38-1.49-.55l.05-5.62,4.51,6.58c1.09,1.58,3.06,1.94,4.74,1.06l.11-1.93h.01ZM218.24,27.32l.77,2.46-1.45.55c-.38.14-.27,1.2-.07,1.63h5.8c.39-.31.43-1.55.02-1.69-.43-.15-1.21-.37-1.34-.72l-4.69-12.99h-2.64l-4.61,13.04c-.12.34-1.14.57-1.51.72v1.65h5.86c.03-.67.05-1.47-.17-1.65l-1.5-.54.75-2.48,4.79.02h-.01ZM126.29,44.28c.73.14,1.58.32,1.58.68v8.2c0,.63-.23,1.88-.68,2.18-1.38.92-3.19.7-4.45-.25-.57-.43-.92-1.42-.92-2.15v-8.15l1.43-.57c.36-.17.21-1.28.05-1.64l-5.6-.02c-.32.09-.48,1.27-.23,1.53s.81.36,1.49.54l.1,9.03c.02,2.14,1.49,3.85,3.47,4.31,1.68.39,3.4.31,4.96-.31,1.89-.75,3.07-2.44,3.08-4.51l.03-8.4,1.33-.5c.41-.15.39-1.42.04-1.69l-5.73.02.06,1.71h0ZM146.66,57.97h2.85v-12.86c0-.57.73-.75,1.35-.86.41-.07.42-1.22.19-1.7h-5.88l-.03,1.65,1.61.38-.09,8.14-6.39-10.15-4.39-.02c-.22.31-.31,1.53.11,1.66.47.14,1.08.32,1.36.6v10.89l-1.41.58c-.4.17-.27,1.39-.04,1.72l5.77-.02c.16-.54.21-1.57-.15-1.72l-1.43-.59.04-8.1,6.52,10.39h0ZM161.15,58.01v-1.71l-1.65-.46-.03-11.03,1.43-.59c.36-.15.28-1.09.21-1.66h-5.94c-.2.51-.2,1.55.2,1.69.45.16,1.04.42,1.35.7v10.61c-.39.25-.96.51-1.37.69-.39.17-.37,1.2-.17,1.73l5.97.02h0ZM173.38,42.56c-.12.54-.08,1.51.06,1.66l1.59.46-2.82,9.13-3.15-9.16,1.7-.47v-1.61h-6.49c-.03.6,0,1.45.19,1.7.46.13,1.44.27,1.58.67l4.7,12.98c.91.1,1.7.1,2.65.05l4.13-12.62c.21-.63.7-.95,1.37-1.07.49-.09.52-1.57.06-1.69l-5.58-.02h.01ZM186.88,55.72v-4.64l4.49-.03v-2.23h-4.48v-4.03h4.5l.43,1.7c.12.46,1.75.46,1.77,0l.21-3.93h-11.27c-.1.56-.2,1.48.16,1.6l1.43.48v11.01l-1.46.63c-.41.17-.26,1.42.03,1.73h11.17l-.11-4.37c-.69-.02-1.55,0-1.89.1l-.42,1.98h-4.56ZM202.61,51.59c.39-.3,1.16.08,1.37.42l2.81,4.64c.96,1.6,2.88,2.05,4.49,1.02l.24-1.92c-2.57,1.16-3.38-3.19-5.16-4.91,1.79-.57,2.88-2.15,2.98-4.17s-1.05-3.86-3.4-4.01-5.03-.11-7.66-.1c-.14.37-.31,1.5.07,1.65l1.47.58v10.92l-1.47.6c-.39.16-.21,1.33-.05,1.7l5.99-.02c.21-.5.27-1.61-.13-1.74l-1.56-.49v-4.18h0ZM226.16,58l-.18-4.4-1.86.03-.35,2.07h-5.67l7.56-11c.06-.53.05-1.48.02-2.15h-10.76l.16,4.32,1.87.03.32-2.14h4.89l-7.46,10.9c-.32.47-.09,1.87.06,2.35h11.41-.01ZM235.92,56.3c-.48-.2-1.18-.44-1.38-.76v-10.72l1.44-.61c.32-.19.2-1.25.04-1.63l-5.61-.02c-.31.09-.47,1.26-.22,1.53s.78.36,1.51.57l.02,10.88c0,.34-1,.58-1.32.72-.38.15-.36,1.24-.14,1.75h5.76c.18-.37.3-1.53-.09-1.7h0ZM249.15,58c.02-.62,0-1.46-.11-1.73-.68-.2-1.28-.34-1.61-.7v-10.81h2.8l.33,1.72c.08.42,1.36.37,1.79.16l.19-4.1h-12.99l.16,3.94c.23.44,1.65.45,1.81.04l.32-1.76,2.83-.02-.02,10.98-1.51.54c-.34.16-.22,1.15-.16,1.72h6.16v.02ZM265.46,55.8l-1.45.51c-.42.15-.41,1.44.02,1.69h5.95c.06-.63.06-1.45-.09-1.73-.67-.22-1.37-.42-1.55-.92l-4.59-12.73-2.67-.03-4.63,13.01c-.11.32-1.03.52-1.3.69-.37.24-.3,1.4-.02,1.73h5.33c.35-.14.52-1.25.26-1.54-.24-.27-.75-.32-1.5-.57.1-.71.4-1.77.66-2.53l4.79.02.8,2.43v-.03ZM195.41,68.85l-1.36,1.08-1.62-1.25c-.76.35.98,2.34,1.69,2.25.36-.04.9-.58,1.16-.91l.57-.72c.09-.11-.33-.54-.43-.45h-.01ZM314.94,70.72l1.7-1.24c.24-.17-.49-.98-.71-.78l-2,1.75c.09.25.8.42,1,.27h0ZM123.64,80.34c1.79-.1,3.11-1.03,3.64-2.65.42-1.29.41-2.82.06-4.13-.46-1.7-1.91-2.53-3.59-2.46-1.86.08-3.38,1.03-3.85,2.9-.31,1.25-.31,2.71.06,3.95.48,1.64,1.88,2.5,3.69,2.4h-.01ZM142.85,79.3c-1.32.11-2.21-.72-2.54-1.76-.47-1.5-.51-3.42.46-4.77.7-.98,2.88-.94,3.45.01.23.38.26,1.39.97,1.01.41-.22.47-1.4.34-1.99-1.53-.91-3.84-1.06-5.31.15-2.07,1.71-2.22,7.25.91,8.21,1.31.4,3.13.07,4.27-.51.21-.11-.03-.89-.26-.82-.53.15-1.61.42-2.29.48h0ZM162.97,80.34c1.84-.12,3.19-1.13,3.65-2.84.31-1.16.31-2.55.05-3.72-.39-1.78-1.86-2.73-3.59-2.68s-3.31.92-3.84,2.69c-.39,1.33-.4,2.89.02,4.22.51,1.63,1.91,2.45,3.71,2.34h0ZM215.97,80.35c2.1-.13,3.51-1.48,3.8-3.46.23-1.58.26-3.49-.94-4.75-1.56-1.64-4.65-1.32-5.96.49-1.07,1.47-1.05,3.33-.7,4.99.38,1.8,1.86,2.85,3.8,2.73ZM299.44,78.74c1.57-4.41-5.16-2.87-4.43-5.81.17-.68.87-.93,1.66-.92.68,0,1.19.32,1.32.85.08.35.09.59.23.6l.73.02.19-2.09c-1.99-.33-4.9-.73-5.32,1.55-.21,1.16.26,2.3,1.4,2.75l2.46.98c.33.13.77.75.81,1.09s-.26,1.06-.57,1.27c-.83.57-2.33.66-2.81-.31-.11-.23-.23-.7-.3-.91-.05-.16-.81-.11-.84.05-.09.46-.15,1.45-.11,1.99,1.79.76,4.91.81,5.59-1.1h-.01ZM136.22,76.06c-.39-.33-.82-.59-1.1-.78.97-.74,1.33-2.21.64-3.3-.24-.37-1.19-.7-1.65-.69l-4.03.04c.02.33.07.7.24.75l.75.23-.02,6.85c-.7.17-1.15.48-.95,1.04l3.99.02c.97,0,2.05-.71,2.36-1.38.39-.83.56-2.13-.21-2.77h-.02ZM156.61,80.17c-.05-.7-.57-.87-1.08-1.08v-6.83l.88-.26c.14-.04.09-.42.08-.7h-3.14c0,.36.04.72.21.77.13.04.74.09.74.22l.09,2.69h-4.16l.07-2.78c.74-.03,1.15-.3,1.02-.92l-3.41.05c.54.71.68.75,1.2,1.05v6.7c-.58.19-.99.35-1.04,1.08l3.12.02c.18-.02.07-.78-.11-.82l-.79-.18v-3.24l4.1.02-.09,3.2-.89.34c-.12.05-.05.41-.03.7l3.25-.05-.02.02ZM173.67,80.17c3.13-.03,3.71-3.98,3.1-6.43-.37-1.47-1.62-2.45-3.13-2.45l-4.31.02c0,.28.13.68.3.74l.71.24-.04,6.87-.92.29c-.13.04-.02.76.12.76l4.17-.04h0ZM187.13,79.92l.08-7.68.69-.21c.14-.04.22-.73.07-.73h-2.79c-.15,0-.06.69.08.73l.77.2-.02,5.82-4.21-6.56c-.57-.29-1.66-.3-2.36-.03.13.41.55.68,1.01.81l-.02,6.9-.9.33c-.12.04-.07.43-.05.72l3.18-.07c-.09-.66-.52-.88-1.06-1.05l.07-5.57,3.93,6.13c.25.39,1.5.94,1.5.25h.03ZM192.66,76.02h2.32c.22,0,.65-.31.64-.49s-.4-.42-.61-.42l-2.34-.02v-2.91l3.16.06c.12.72.14,1.24,1.01,1.17l.08-2.15-6.55.08c.34.67.56.68,1.13.97l-.02,6.66c-.07.15-.69.39-.84.48s-.12.38-.12.76h6.38c.06-.62.09-1.64-.07-2.09-.07-.19-.8-.14-.82.06l-.1,1.01-3.27.08.03-3.25h0ZM206.03,79.22v-2.5c1.54.15,2.68-.22,3.48-1.3.68-.92.85-2.34.11-3.43-.25-.37-1.18-.71-1.66-.71h-4.07c-.02.23-.02.68.11.72l.84.23v6.91l-.92.3c-.13.04-.07.76.07.76l3.09-.05c.21,0,.05-.78-.14-.81l-.92-.14v.02ZM226.67,80.17c3.16-.03,3.69-3.99,3.11-6.42-.36-1.5-1.62-2.47-3.15-2.46l-4.3.02c0,.28.12.68.29.74l.71.23-.04,6.89-.92.29c-.13.04-.02.76.12.76l4.17-.04h0ZM240.12,79.91l.1-7.69.94-.3c.13-.04-.07-.64-.2-.63l-3.01.05c.25.65.64.78,1.07,1.02l-.08,5.5-4.2-6.45c-.66-.17-1.65-.15-2.3.01.18.52.51.71,1.07.84v6.83l-.86.36c-.13.05-.05.76.1.76l2.89-.05c-.04-.7-.45-.88-1.02-1.06l.06-5.59,3.95,6.14c.25.39,1.48.96,1.49.26h0ZM246.87,80.12c-.78-.9-.75-.8-1.25-1.17l.03-6.68c.62-.09,1.15-.51.9-.96h-3.02c-.02.25-.08.67.06.7l.89.2v6.99c-.68.1-1.19.44-.97.99l3.36-.06h0ZM255.33,78.85l-2.64-3.64,2.82-2.91c.19-.2,1.09-.48.87-.73-1.28-1.5-3.58,2.5-4.88,3.35v-2.7c.72-.05,1.18-.31,1.01-.92l-3.28.03c.19.68.48.81,1.08.93v6.94l-.86.24c-.15.04-.08.77.07.77l2.89-.03c.19,0,.04-.76-.14-.8l-.79-.17.05-3.44,3.07,4.09c.22.29,1.01.49,1.42.51.31.01.83-.46.83-.84-.49-.17-1.29-.35-1.52-.68ZM263.36,77.45c.46.12.76,1.58.56,1.75l-.71.27c-.13.05-.11.72.03.72h3.01c.47-.91-.72-.81-.84-1.12l-2.71-7.54c-.13-.37-1.27-.38-1.4-.02l-2.77,7.53c-.12.33-1.51.84-.61,1.07.6.15,2.03.1,2.64.04.18-.02.02-.69-.14-.75l-.66-.25c.02-.5.27-1.52.65-1.81.88-.08,2.13-.1,2.94.11h0ZM272.71,80.21c.16-.75-.37-.93-1.02-1.02l-.04-6.94c.58-.14,1.7-.24,2.04.11.22.43.21,1.33,1.01.97l.14-2.03h-7.44l.12,2.09c.43-.05.75-.07.8-.22s.12-.69.22-.8c.38-.33,1.46-.25,2.04-.1l-.04,6.93c-.68.06-1.26.49-.98,1l3.14.03v-.02ZM279.01,76.03l2.51-.03c.17,0,.48-.63.33-.7-.1-.05-.42-.17-.53-.17l-2.32-.04v-2.9l3.15.06c.12.72.14,1.26,1.02,1.15l.08-2.13-6.56.08c.38.64.59.68,1.15,1.02l-.03,6.58c0,.17-.71.38-.84.49s-.11.37-.11.76h6.38c.05-.64.07-1.63-.05-2.09-.05-.2-.82-.13-.84.08l-.1,1-3.27.07.04-3.24h-.01ZM291.73,78.13c-.03-.2-.79-.18-.82.02l-.2,1.04-2.81.07.04-7.07c.73,0,1.24-.29,1.02-.89l-3.39.04c.54.7.7.76,1.2,1.04v6.73l-.87.34c-.14.05-.05.75.14.75h5.77c0-.64-.02-1.6-.08-2.07ZM307.87,78.84l-2.65-3.63c1.01-1.07,1.92-2.04,2.88-2.95.23-.22,1.13-.48.73-.82-.24-.22-1.24-.18-1.51.1l-3.28,3.42c-.06-.96-.06-1.92,0-2.77.7,0,1.18-.31.96-.89l-3.27.02c.2.68.49.8,1.08.93v6.94l-.85.24c-.14.04-.08.77.07.77h2.9c.41-.51-.23-.94-.93-1.02l.02-3.45,3.06,4.08c.24.32,1.04.54,1.42.55.31,0,.85-.48.88-.82-.55-.2-1.3-.38-1.54-.71h.03ZM315.91,77.44c.46.11.76,1.59.52,1.77l-.71.27c-.13.05-.12.71.03.71h3.01c.77-.74-.63-.73-.75-1.06l-2.8-7.64c-.18-.49-1.28-.33-1.46.19-.79,2.29-1.87,5.41-2.69,7.35-.14.34-1.51.87-.65,1.07.77.18,1.89.15,2.77,0,.26-.18-.38-.78-.69-.94-.41-.24.02-1.69.51-1.78.72-.13,2.05-.15,2.91.06h0ZM261.53,87.5c-.07-.17-.57-.56-.7-.45l-2.07,1.84c.28.92,3.01-.86,2.78-1.39h0ZM192.59,89.54c0,.28.06.74.23.8l.82.27-1.88,6.16-2.1-6.18.9-.31c.13-.04.1-.57.04-.72h-3.27c-.04.21.03.76.22.81l.75.18,2.79,7.61c.12.32,1.09.32,1.2-.01l2.56-7.54c.23-.22,1.32-.66.81-1.02l-3.08-.06h.01ZM234.13,89.7c.74.76.77.69,1.31.99l-1.86,5.94-2.12-6.1.85-.23c.15-.04.14-.73,0-.73h-3.09c-.79.88.75.7.9,1.1l2.83,7.59c.1.26,1.07.16,1.16-.1l2.54-7.49c.12-.35,1.58-.63.71-1.09-1-.06-1.95-.02-3.23.12h0Z"/>
  <path class="st1" d="M0,51.24v-5.03l.51-4.64C2.95,19.32,21.99,1.62,44.39.41l2.16-.12c1.34-.07,2.69-.06,4.04,0l2.31.12c24.7,1.26,43.46,22.52,44.23,46.72.78,24.53-16.94,45.78-41.13,49.5S8.33,85.46,1.67,61.55c-.94-3.37-1.28-6.85-1.67-10.32h0ZM50.39,16.64l-1.85-2.82-1.84,2.84-1.88-2.79-.05,5.74,7.53.03-.07-5.73-1.85,2.72h0ZM82.4,55.57c3.23,1.56,5.64-1.02,6.89-3.87l-22.13-9.78c.26-.94.56-1.78.95-2.65l10.73,2.37c2,.44,4,.67,6.05.83,3.11.25,4.07-3.22,4.42-5.64-7.2-.35-14.06-.9-21.19-1.81l-.85-2.59c3.36-.23,13.24.43,15.28-1.47,1.58-1.47,1.87-3.69,1.91-5.76-6.33,2.09-12.62,2.96-19.2,3.12-.59-.49-1.02-1.06-1.48-1.91l8.21-1.58c4.17-.8,5.68-1.35,6.75-6.22-5.31,1.93-10.47,3.19-15.87,4.24-1.9.37-3.61-.25-4.6-1.91-1.87,2.38-1.4,5.47.79,7.57.95.91,1.79,1.88,2.03,3.25.37,2.18.5,4.28.38,6.49l-4.85,2.33c-1.52-.08-1.48-4.02-1.49-5.14-.05-5.89-3.05-5.72-3.22-10.45l-6.49.05-2.62,1.34c-.67,1.74-.7,3.51-.04,5.35.64-.46,1.29-.99,1.94-1.25,1.52-.59,2.96.64,3.2,2.21.18,1.19-.46,2.78-1.5,3.56l-5.84,4.37-4.96-2.37c-.07-1.95.05-3.94.29-5.9.21-1.66,1.03-2.8,2.18-3.88,2.19-2.07,2.58-5.18.76-7.53-.96,1.56-2.53,2.28-4.36,1.95-5.54-1.01-10.84-2.38-16.11-4.24,1.11,5.14,2.89,5.45,7.2,6.28l7.77,1.49c-.46.83-.88,1.37-1.46,1.9-6.62-.15-12.97-1.06-19.23-3.12.06,2.09.33,4.29,1.93,5.77,2.02,1.87,12.02,1.24,15.28,1.44l-.85,2.6c-7.15.93-14.09,1.45-21.21,1.83.31,2.42,1.39,5.83,4.22,5.63,2-.14,3.94-.33,5.89-.76l11.11-2.44c.38.93.67,1.73.94,2.65l-22.15,9.78c1.13,2.63,3.56,5.43,6.75,3.92,5.87-2.77,11.03-7.06,17.06-9.83.67.25,1.41,1.37,1.17,1.96-5.67,6-11.6,11.39-17.6,17.05,1.66,1.61,3.99,3.01,6.37,2.29,3.44-1.04,12.77-14.51,15.98-17.75.65-.18,1.75.27,2.18.71.48.48.62,1.42.67,2.16,1.67,1.63,3.32,3.27,4.37,5.38,1.28,2.57.27,5.09-2.44,6.3l6.24,5.6,6.22-5.57c-2.78-1.2-3.72-3.8-2.43-6.36,1.03-2.05,2.65-3.67,4.29-5.29.12-.69.23-1.76.75-2.25.48-.45,1.5-.84,2.2-.69l5.44,6.67c1.95,2.39,8.01,10.43,10.54,11.12s4.78-.73,6.31-2.33l-11.21-10.58c-2.24-2.12-4.23-4.18-6.38-6.46-.14-.61.5-1.72,1.19-1.92,6.1,2.8,11.01,6.91,16.92,9.76v-.02ZM69.99,83l-1.81-4.36c1.35.2,2.26.44,3.23.77l-11.6-19.62c-.52.41-.83.69-1.26,1.12l5.59,11.85c-4.53,2.28-8.4,5.15-11.53,8.95l-4.08,4.94c-4.82-6.16-8.36-10.23-15.59-13.89l5.59-11.79-1.19-1.29-11.65,19.71c1.37-.41,2-.57,3.3-.78l-1.82,4.29c2.94-3.02,9.11-3.02,13.55-.27,2.52,1.56,4.27,3.78,5.97,6.21l1.88-1.94,1.86,1.94c1.75-2.52,3.53-4.74,6.13-6.3,3.9-2.35,10.21-2.95,13.45.48l-.02-.02Z"/>
  <path d="M252.77,98.64h-1.03l-4.34-6.72-.1,5.48.78.4c.2.1.2.62.16.84h-3.06l.03-.73c0-.18.51-.25.94-.39v-6.91c-.61-.17-1.02-.41-1.06-.92.68-.17,1.61-.19,2.26-.04l4.25,6.53.03-5.62c-.58-.01-1.14-.76-.82-.98h3.1c-.14.68-.53.88-1.05,1.06l-.1,7.99h.01Z"/>
  <path d="M228.06,98.64h-1.42c-1.39-.81-2.53-4.76-3.73-4.05-.06.83-.06,2.19.05,2.87.03.18.84.17.92.33.1.21.12.52.12.84h-3.27l.03-.73c0-.18.5-.22.94-.33v-6.98l-.94-.33c-.13-.04-.03-.49,0-.67,1.58-.05,3.46-.2,5.02.29,1.09.35,1.2,1.6,1.04,2.57-.14.82-.93,1.44-1.86,1.83l2.31,3.4c.25.06.99.09.94.27l-.16.67v.02ZM224.97,93.34c.9-.52.89-1.99.14-2.48-.59-.38-1.48-.37-2.25-.31v3.02c.66.04,1.57.08,2.11-.23Z"/>
  <path d="M145.12,98.64h-1.7l-3.4-4.55c-.59,5.87,1.15,2.18.95,4.55h-3.1c-.02-.14-.13-.67.04-.75l.88-.43.02-6.8-.92-.35c-.14-.05-.05-.75.1-.75h2.99c.03.24,0,.71-.16.79l-.84.38.02,2.55,2.83-2.94c.46-.48,1.43-1.26,2.04-.52.27.32-.79.71-1.03.96l-2.65,2.82,2.76,3.72c.21.29,1,.38,1.39.44l-.22.88h0Z"/>
  <path d="M209.36,98.64h-1.71l-3.41-4.49c-.08.97-.1,2.43-.02,3.31l.83.44c.17.09.06.58.03.73h-3.06l.03-.73c0-.17.47-.23.93-.36l.03-6.83c-.56-.22-1.06-.4-1.05-1.1l3.01-.06c.21,0,.14.79-.05.85l-.77.23.09,2.63,3.05-3.22c.36-.38,1.44-.72,1.74-.28.35.53-.69.68-.91.92l-2.73,2.93,2.77,3.72c.21.29,1.04.42,1.34.49l-.13.82h0Z"/>
  <path d="M136.01,98.64h-3.1c0-.14-.11-.64.05-.72l.88-.47-.59-1.8-3.15.02c-.29.47-.64,1.4-.48,1.8l.76.48c.15.1.06.55.04.7h-2.99c-.01-.21-.07-.71.12-.81.15-.08.57-.29.78-.41l2.75-7.67c.24-.18.97-.2,1.28-.09l2.8,7.83.81.42c.17.09.06.6.03.75v-.03ZM132.94,94.69l-1.31-3.57-1.28,3.64,2.59-.06h0Z"/>
  <path d="M218.96,98.64h-3.12c-.02-.15-.11-.62.05-.71l.86-.51-.58-1.77h-3.17c-.3.5-.61,1.44-.44,1.86.07.16.74.26.75.43l.03.69h-2.99l.03-.73c0-.18.56-.29.83-.39l2.81-7.83c.35-.15,1.05-.12,1.31.07l2.75,7.72c.22.11.83.25.84.43l.03.72v.02ZM215.84,94.69l-1.31-3.77-1.23,3.82,2.54-.05Z"/>
  <path d="M152.01,98.64h-2.56c-1.07-.64-1.71-1.5-1.72-2.88l-.03-5.11c-.58-.14-1.19-.62-.92-1.05l3.09-.05c.02.26,0,.77-.19.83l-.77.26-.06,4.65c-.02,1.36.63,2.29,2.05,2.39,1.03.07,2.04-.52,2.04-1.72v-5.28c-.64-.18-1.03-.29-1.02-1.08h2.93c.2,0,.14.78-.05.84l-.77.24v4.88c0,1.53-.78,2.46-2.02,3.11v-.03Z"/>
  <path d="M181.93,98.64h-3.18l.04-.69c0-.17.65-.3.76-.44.12-.45-.2-1.36-.5-1.86h-3.15c-.2.57-.45,1.39-.54,1.77l.86.5c.16.09.06.56.05.71h-2.91c-.02-.14-.13-.66.03-.75l.8-.42,2.81-7.83c.32-.1,1.03-.08,1.28.08l2.8,7.71c.15.43,1.45.44.85,1.21h0ZM178.82,94.68l-1.3-3.52-1.3,3.59,2.6-.07Z"/>
  <path d="M262.6,98.64h-6.39l.03-.73c0-.18.48-.23.94-.36l.02-6.96c-.63-.21-.95-.3-1.09-.99l6.52-.07-.16,2.26c-.44-.09-.77-.22-.81-.41l-.18-.79-3.11-.02v2.8h2.56c.24,0,.34.83.14.92l-2.71.1v3.29l3.23-.11c0-.75.12-1.49.9-1.22.15.54.17,1.63.13,2.3h-.02Z"/>
  <path d="M123.22,98.64h-3.32c0-.2,0-.54.04-.72s.51-.27.9-.43l.02-6.9-.86-.32c-.12-.05-.1-.52-.05-.71h6.2l-.04,2.11c-.22.09-.8.08-.84-.11l-.16-.95-3.11-.02.03,2.81,2.36.08c.14,0,.27.38.3.52s-.32.44-.48.44l-2.21.05.06,3.07,1.12.32c.18.05.03.67.03.77h.01Z"/>
  <path d="M170.06,98.64h-3.15c0-.13-.14-.67.03-.74l.96-.38.04-7-2.13.1-.07.95c0,.16-.73.2-.77.05-.14-.48-.16-1.53-.09-2.07h7.33l-.15,2.19c-.33-.02-.74-.04-.76-.19l-.14-.91c-.52-.08-1.35-.12-2.1-.13l.03,6.98.93.39c.18.07.06.62.04.76h0Z"/>
  <path d="M163.27,98.64h-5.95c0-.2,0-.54.04-.72s.51-.27.9-.43v-6.84l-.87-.36c-.13-.05-.08-.57-.02-.74l3.02.03c.11.15.02.76-.16.81l-.79.21-.03,6.95c.83.16,2.11.17,2.79-.09l.22-1.01c.04-.18.75-.19.78,0,.07.55.09,1.58.07,2.2h0Z"/>
  <path class="st0" d="M251.74,98.64h-3.5c.04-.22.04-.74-.16-.84l-.78-.4.1-5.48,4.34,6.72Z"/>
  <path d="M242.46,98.64h-3.08l.03-.73c0-.18.54-.24.93-.36v-6.91l-.91-.35c-.13-.05-.07-.56-.05-.75l3.17.07c.3.79-.98.84-.99,1.15-.08,2.17-.07,4.67-.02,6.72l.88.44c.16.08.05.59.04.73h0Z"/>
  <path class="st0" d="M178.75,98.64h-2.49c.02-.15.11-.62-.05-.71l-.86-.5c.09-.38.34-1.2.54-1.77h3.15c.3.5.62,1.41.5,1.86-.11.14-.75.26-.76.44l-.04.69h.01Z"/>
  <path class="st0" d="M215.84,98.64h-2.49l-.03-.69c0-.17-.68-.27-.75-.43-.18-.43.14-1.37.44-1.85h3.17l.58,1.76-.86.51c-.16.09-.07.57-.05.71h0Z"/>
  <path class="st0" d="M132.9,98.64h-2.49c0-.16.11-.61-.04-.7l-.76-.48c-.16-.4.19-1.32.48-1.8l3.15-.02.59,1.8-.88.47c-.16.08-.06.58-.05.72h0Z"/>
  <path class="st0" d="M226.64,98.64h-2.65c0-.32-.02-.63-.12-.84-.08-.17-.89-.15-.92-.33-.1-.68-.11-2.04-.05-2.87,1.2-.72,2.34,3.23,3.73,4.05h0Z"/>
  <path class="st0" d="M143.42,98.64h-2.45c.2-2.37-1.55,1.33-.95-4.55l3.4,4.55Z"/>
  <path class="st0" d="M207.64,98.64h-2.57c.03-.16.14-.65-.03-.73l-.83-.44c-.08-.89-.06-2.34.02-3.31l3.41,4.49h0Z"/>
  <path d="M146.66,57.97l-6.52-10.39-.04,8.1,1.43.59c.36.15.31,1.18.15,1.72l-5.77.02c-.23-.33-.36-1.55.04-1.72l1.4-.58v-10.89c-.28-.28-.88-.46-1.36-.6-.42-.13-.33-1.35-.11-1.66l4.39.02,6.39,10.15.09-8.14-1.61-.38.03-1.64h5.88c.23.47.22,1.61-.19,1.69-.61.11-1.35.29-1.35.86v12.85h-2.86.01Z"/>
  <path d="M202.61,51.59v4.18l1.55.49c.4.12.34,1.24.13,1.74l-5.99.02c-.16-.37-.34-1.54.05-1.7l1.47-.6v-10.92l-1.47-.58c-.38-.15-.21-1.28-.07-1.65,2.63,0,5.2-.05,7.66.1s3.5,1.9,3.4,4.01-1.19,3.6-2.98,4.17c1.79,1.72,2.59,6.06,5.16,4.91l-.24,1.92c-1.62,1.03-3.53.58-4.49-1.02l-2.81-4.64c-.21-.35-.98-.73-1.37-.42h0ZM205.73,48.71c.81-.81.81-2.58.14-3.3-.83-.89-2.27-.74-3.3-.54l.05,4.38c1.06,0,2.36.21,3.1-.53h0Z"/>
  <path d="M206.24,29.82l-.11,1.93c-1.67.89-3.65.53-4.74-1.06l-4.51-6.58-.05,5.62c.38.17,1.07.41,1.49.55s.33,1.3.08,1.67h-5.91c-.05-.44-.1-1.32-.05-1.63l1.57-.5v-11.12l-1.56-.48-.04-1.68,6.16-.03-.02,1.68-1.71.49.03,4.33,5.28-5.83c.78-.87,2.37-.69,3.32-.55l-.02,1.74c-.66.12-1.53.26-1.89.66l-3.98,4.35,4.16,5.69c.55.75,1.24.98,2.5.74h0Z"/>
  <path d="M126.29,44.28l-.06-1.71,5.73-.02c.36.28.38,1.54-.04,1.69l-1.33.5-.03,8.4c0,2.07-1.19,3.76-3.08,4.51-1.56.62-3.28.71-4.96.31-1.98-.46-3.44-2.18-3.47-4.31l-.1-9.03c-.68-.18-1.24-.28-1.49-.54s-.09-1.44.23-1.53l5.6.02c.16.36.31,1.47-.05,1.64l-1.43.57v8.15c0,.73.34,1.72.91,2.15,1.25.95,3.06,1.17,4.45.25.46-.3.68-1.54.68-2.18v-8.2c0-.36-.85-.54-1.58-.68h.02Z"/>
  <path d="M265.46,55.8l-.8-2.43-4.79-.02c-.26.76-.56,1.83-.66,2.53.76.25,1.26.3,1.5.57.26.29.09,1.4-.26,1.54h-5.33c-.28-.33-.35-1.49.02-1.73.26-.17,1.18-.36,1.3-.69l4.63-13.01,2.67.03,4.59,12.73c.18.5.88.7,1.55.92.15.29.15,1.11.09,1.74h-5.95c-.43-.26-.44-1.55-.02-1.69l1.45-.51v.02ZM263.84,51.15l-1.62-4.75-1.59,4.82,3.21-.07Z"/>
  <path d="M218.24,27.32l-4.79-.02-.75,2.48,1.5.54c.22.18.2.97.17,1.64h-5.86v-1.64c.37-.15,1.39-.38,1.51-.72l4.61-13.03h2.64l4.69,12.97c.13.35.91.58,1.34.72.41.14.36,1.39-.02,1.69h-5.8c-.2-.42-.31-1.47.07-1.62l1.45-.55-.77-2.46h.01ZM217.39,25.09l-1.63-4.68-1.54,4.73,3.17-.05Z"/>
  <path d="M151.08,29.71l4.69-.04.32-2.02,1.89-.04.11,4.34h-11.12c-.36-.36-.41-1.56,0-1.7.5-.17,1.07-.4,1.37-.7v-10.91l-1.36-.49c-.37-.13-.32-1.13-.17-1.62h11.24l-.17,4.11c-.27.26-1.66.38-1.77-.04l-.46-1.77-4.54-.05-.04,4.02,4.54.02v2.29h-4.53v4.59h0Z"/>
  <path d="M186.88,55.72h4.56l.42-1.99c.34-.11,1.2-.12,1.89-.1l.11,4.37h-11.17c-.29-.3-.43-1.55-.03-1.72l1.46-.63v-11.01l-1.43-.48c-.36-.12-.25-1.04-.16-1.61h11.27l-.21,3.94c-.02.47-1.65.46-1.77,0l-.43-1.7h-4.51v4.01h4.48v2.24l-4.48.03v4.64h0Z"/>
  <path d="M226.16,58h-11.41c-.15-.47-.39-1.87-.06-2.34l7.46-10.89h-4.89l-.32,2.13-1.87-.03-.16-4.31h10.76c.03.65.03,1.6-.02,2.14l-7.56,10.99h5.67l.35-2.07,1.86-.03.18,4.4h.01Z"/>
  <path d="M173.86,31.97l-11.49-.02c-.06-.76-.21-1.92.1-2.37l7.41-10.8-4.83-.03-.37,2.02-1.9.07-.11-4.3h10.75v2.13s-7.59,11.01-7.59,11.01l5.64.03.37-2.08h1.85l.16,4.35h0Z"/>
  <path d="M173.38,42.56l5.58.02c.46.11.43,1.6-.06,1.69-.67.12-1.16.44-1.37,1.07l-4.13,12.62c-.95.05-1.74.05-2.65-.05l-4.7-12.98c-.14-.39-1.11-.53-1.58-.67-.2-.25-.22-1.1-.19-1.69h6.48v1.59l-1.7.47,3.15,9.16,2.82-9.13-1.59-.46c-.14-.15-.18-1.11-.06-1.66v.02Z"/>
  <path d="M128.46,28.97c-.95,3.93-7.58,3.78-10.54,2.22l.26-3.67h2.19l.3,1.92c1.07.62,2.35.88,3.57.53.83-.24,1.48-.91,1.58-1.65.1-.79-.34-1.79-1.18-2.11l-3.62-1.4c-2.03-.79-3.14-2.48-3-4.7.3-4.77,6.65-3.89,9.94-3.21l-.26,3.46-2.16.1-.33-1.61c-1.09-.43-2.49-.71-3.63-.11-.65.35-.79,1.41-.57,2.1.93,3,9.04,1.54,7.45,8.14h0Z"/>
  <path d="M188.34,28.61c-.76,4.26-7.21,4.18-10.61,2.64l.22-3.73h2.19l.32,1.93c1.01.55,2.34.86,3.51.54.96-.26,1.61-1,1.65-1.86.04-.9-.52-1.69-1.42-2.04l-3.76-1.47c-1.62-.63-2.47-2.1-2.62-3.79-.2-2.32,1.34-4.11,3.71-4.39,2.03-.24,4.04.09,6.23.42l-.25,3.55-2.14.03-.39-1.65c-1.13-.36-2.51-.68-3.62-.04-.6.34-.76,1.43-.58,1.98,1.04,3.18,8.69,1.57,7.57,7.87h-.01Z"/>
  <path d="M249.15,58h-6.16c-.07-.57-.18-1.56.16-1.72l1.51-.54.02-10.98-2.83.02-.32,1.76c-.16.41-1.58.4-1.81-.04l-.16-3.94h12.99l-.19,4.1c-.43.21-1.7.27-1.79-.16l-.33-1.72h-2.79v10.8c.33.35.93.5,1.61.7.12.27.13,1.1.11,1.73h-.02Z"/>
  <path d="M143.17,27.6l.11,4.35h-10.48c-.25-.38-.32-1.51.07-1.67.42-.17,1.05-.44,1.38-.65v-10.91l-1.57-.46-.06-1.73h6.25l-.09,1.73-1.71.4v11.02l3.9.02.36-2.09h1.85-.01Z"/>
  <path d="M235.92,56.3c.4.17.28,1.32.09,1.71h-5.76c-.22-.52-.24-1.61.14-1.76.33-.13,1.31-.37,1.32-.72l-.02-10.88c-.73-.21-1.27-.3-1.51-.57s-.09-1.43.22-1.53l5.61.02c.16.38.28,1.44-.04,1.63l-1.44.61v10.72c.2.32.9.56,1.38.76h0Z"/>
  <path d="M161.15,58.01l-5.97-.02c-.2-.53-.22-1.56.17-1.73.42-.18.98-.44,1.37-.69v-10.61c-.31-.28-.9-.54-1.35-.7-.4-.15-.41-1.19-.2-1.7h5.94c.07.58.15,1.52-.21,1.67l-1.43.59.03,11.03,1.64.46v1.71h.01Z"/>
  <path d="M240.12,79.91c0,.71-1.25.13-1.49-.26l-3.95-6.14-.06,5.59c.56.18.98.36,1.02,1.06l-2.89.05c-.14,0-.23-.71-.1-.76l.87-.36v-6.83c-.57-.13-.9-.32-1.08-.84.66-.17,1.65-.18,2.3-.01l4.2,6.45.08-5.5c-.43-.23-.82-.36-1.07-1.02l3.01-.05c.13,0,.33.59.2.63l-.94.3-.1,7.69h0Z"/>
  <path d="M187.13,79.92c0,.68-1.25.14-1.5-.25l-3.93-6.13-.07,5.57c.54.17.97.39,1.06,1.05l-3.18.07c-.02-.29-.07-.67.05-.72l.9-.33.02-6.9c-.46-.13-.88-.4-1.01-.81.69-.27,1.78-.26,2.36.03l4.21,6.56.02-5.82-.77-.2c-.15-.04-.23-.73-.08-.73h2.79c.15,0,.07.69-.07.73l-.69.21-.08,7.68h-.03Z"/>
  <path d="M156.61,80.17l-3.25.05c-.02-.29-.09-.66.03-.7l.89-.34.09-3.2-4.11-.02v3.24l.8.18c.18.04.3.79.11.82l-3.12-.02c.05-.72.46-.88,1.03-1.08v-6.7c-.52-.3-.66-.34-1.2-1.05l3.41-.05c.13.62-.27.89-1.02.92l-.07,2.78h4.16l-.09-2.69c0-.14-.61-.18-.74-.22-.17-.06-.2-.41-.21-.76h3.14c0,.27.05.65-.08.69l-.87.26v6.83c.5.21,1.03.38,1.07,1.08l.03-.02Z"/>
  <path d="M173.67,80.17l-4.17.04c-.14,0-.25-.72-.12-.76l.92-.29.04-6.87-.71-.24c-.17-.06-.29-.45-.3-.74l4.31-.02c1.51,0,2.76.98,3.13,2.45.61,2.45.03,6.4-3.1,6.43h0ZM174.92,78.42c1.12-1.44,1.16-4.12.05-5.49-.82-1.02-2.41-.73-3.49-.69l-.02,6.92c1,.12,2.56.42,3.46-.74Z"/>
  <path d="M226.67,80.17l-4.17.04c-.14,0-.25-.72-.12-.76l.92-.29.04-6.89-.71-.23c-.17-.06-.29-.46-.29-.74l4.3-.02c1.53,0,2.79.96,3.15,2.46.58,2.43.05,6.39-3.11,6.42h0ZM228.1,78.22c.9-1.49.93-3.85-.04-5.21-.79-1.1-2.44-.82-3.58-.77l-.02,6.91c1.11.17,2.85.37,3.64-.93Z"/>
  <path d="M136.22,76.06c.77.64.59,1.94.21,2.77-.31.67-1.39,1.39-2.36,1.38l-3.99-.02c-.2-.57.25-.88.95-1.04l.02-6.85-.75-.23c-.17-.05-.22-.42-.24-.75l4.03-.04c.46,0,1.41.32,1.65.69.69,1.09.33,2.56-.64,3.3.28.19.71.45,1.1.78h.02ZM134.43,74.73c.64-.45.64-1.76.09-2.15-.63-.45-1.68-.52-2.37-.37l.02,2.91c.78.03,1.63.05,2.26-.39ZM134.69,79.05c1.12-.42,1.11-2.28.17-2.73-.81-.39-1.83-.33-2.7-.26v3.2c.86.01,1.79.08,2.54-.21h0Z"/>
  <path d="M162.97,80.34c-1.8.12-3.21-.71-3.71-2.34-.41-1.32-.41-2.89-.02-4.22.53-1.77,2.05-2.65,3.84-2.69s3.2.9,3.59,2.68c.26,1.17.26,2.57-.05,3.72-.46,1.71-1.81,2.73-3.65,2.84h0ZM165,78.46c1-1.91.92-5.58-1.27-6.23-.95-.28-2.33-.25-2.87.68-1.02,1.77-1.05,5.7,1.4,6.35.83.22,2.21.19,2.74-.81h0Z"/>
  <path d="M215.97,80.35c-1.95.12-3.42-.93-3.8-2.73-.35-1.66-.37-3.52.7-4.99,1.31-1.81,4.4-2.13,5.96-.49,1.2,1.26,1.17,3.18.94,4.75-.28,1.98-1.7,3.33-3.8,3.46ZM218.04,78.44c.93-1.87.91-5.57-1.31-6.21-.97-.28-2.35-.25-2.88.71-1,1.82-1.05,5.85,1.61,6.37.79.16,2.1.08,2.58-.87Z"/>
  <path d="M123.64,80.34c-1.8.1-3.2-.76-3.69-2.4-.36-1.23-.37-2.7-.06-3.95.47-1.87,1.99-2.82,3.85-2.9,1.68-.07,3.13.76,3.59,2.46.35,1.31.36,2.84-.06,4.13-.52,1.62-1.84,2.55-3.64,2.65h.01ZM125.7,78.48c1.07-1.94.86-5.67-1.25-6.26-1.03-.28-2.37-.24-2.9.73-.99,1.79-.98,5.64,1.39,6.3.83.23,2.22.22,2.77-.77h0Z"/>
  <path d="M255.33,78.85c.23.32,1.03.51,1.52.68,0,.38-.52.86-.83.84-.41-.02-1.2-.22-1.42-.51l-3.07-4.09-.05,3.44.79.17c.18.04.33.8.14.8l-2.89.03c-.15,0-.22-.73-.07-.77l.85-.24v-6.94c-.59-.12-.88-.25-1.07-.93l3.28-.03c.17.61-.28.87-1.02.92v2.7c1.31-.85,3.61-4.85,4.89-3.35.22.26-.68.53-.87.73l-2.82,2.91,2.64,3.64Z"/>
  <path d="M307.87,78.84c.24.33.99.51,1.54.71-.03.34-.57.82-.88.82-.38,0-1.18-.22-1.42-.55l-3.06-4.08-.02,3.45c.7.08,1.34.51.93,1h-2.9c-.15.02-.21-.71-.07-.76l.84-.24v-6.94c-.58-.12-.87-.25-1.07-.93l3.27-.02c.22.58-.27.88-.96.89-.07.85-.07,1.82,0,2.77l3.28-3.42c.27-.28,1.27-.32,1.51-.1.39.35-.51.61-.73.82-.96.91-1.87,1.88-2.88,2.95l2.65,3.63h-.03Z"/>
  <path d="M315.91,77.44c-.86-.21-2.18-.19-2.91-.06-.49.09-.91,1.54-.51,1.78.31.15.94.75.69.94-.89.15-2,.19-2.77,0-.86-.2.51-.73.65-1.07.81-1.94,1.89-5.06,2.69-7.35.18-.51,1.28-.67,1.46-.19l2.8,7.64c.12.33,1.51.32.75,1.07h-3.01c-.14,0-.16-.67-.03-.72l.71-.27c.23-.18-.06-1.66-.52-1.77h0ZM315.72,76.33l-1.29-3.53-1.3,3.54h2.59Z"/>
  <path d="M263.36,77.45c-.81-.21-2.06-.19-2.94-.11-.38.29-.64,1.31-.65,1.81l.66.25c.17.06.32.74.14.75-.61.06-2.05.12-2.64-.04-.9-.23.49-.74.61-1.07l2.77-7.53c.13-.36,1.27-.35,1.4.02l2.71,7.54c.11.31,1.31.21.84,1.11h-3.01c-.14.01-.16-.66-.03-.71l.71-.27c.21-.17-.09-1.63-.56-1.75h0ZM263.17,76.28l-1.32-3.53-1.27,3.6,2.58-.07h.01Z"/>
  <path d="M299.44,78.74c-.68,1.91-3.8,1.86-5.59,1.1-.04-.53.02-1.53.11-1.99.03-.16.79-.21.84-.05.07.21.19.69.3.91.48.96,1.98.87,2.81.31.31-.21.61-.93.57-1.27s-.48-.96-.81-1.09l-2.46-.98c-1.14-.46-1.61-1.6-1.4-2.75.41-2.28,3.33-1.88,5.32-1.55l-.19,2.09-.73-.02c-.14,0-.15-.24-.23-.6-.13-.53-.64-.84-1.32-.85-.8-.01-1.49.24-1.66.92-.73,2.94,6,1.4,4.43,5.81h.01Z"/>
  <path d="M234.13,89.7c1.28-.14,2.23-.18,3.23-.12.87.46-.59.74-.71,1.09l-2.54,7.49c-.09.26-1.07.36-1.16.1l-2.83-7.59c-.15-.4-1.69-.22-.9-1.09h3.09c.15-.01.15.68,0,.72l-.85.23,2.12,6.1,1.86-5.94c-.54-.3-.57-.23-1.31-.99h0Z"/>
  <path d="M192.59,89.54l3.08.06c.51.35-.58.8-.81,1.02l-2.56,7.54c-.11.34-1.08.33-1.2.01l-2.79-7.61-.75-.18c-.18-.04-.26-.6-.22-.81h3.27c.06.15.08.68-.04.72l-.9.31,2.1,6.18,1.88-6.16-.82-.27c-.18-.06-.25-.52-.23-.8h-.01Z"/>
  <path d="M206.03,79.22l.92.14c.19.03.35.81.14.81l-3.09.05c-.14,0-.2-.72-.07-.76l.92-.3v-6.91l-.85-.23c-.14-.04-.13-.49-.11-.71h4.07c.48-.01,1.41.33,1.66.69.74,1.09.57,2.51-.11,3.43-.79,1.08-1.93,1.45-3.47,1.3v2.5h0ZM208,72.35c-.58-.25-1.45-.22-2-.15l.03,3.52c.73.42,2.19.09,2.52-.71s.57-2.17-.56-2.66h0Z"/>
  <path d="M279.01,76.03l-.04,3.24,3.27-.07.1-1c.02-.2.78-.28.84-.08.12.46.11,1.45.05,2.1h-6.38c0-.4-.01-.66.11-.77s.84-.33.84-.49l.03-6.58c-.56-.34-.77-.38-1.15-1.02l6.56-.08-.08,2.13c-.88.1-.89-.44-1.02-1.15l-3.15-.06v2.9l2.32.04c.11,0,.43.12.53.17.15.07-.16.7-.33.7l-2.51.03h.01Z"/>
  <path d="M192.66,76.02l-.03,3.25,3.27-.08.1-1.01c.02-.2.75-.26.82-.06.16.44.12,1.46.07,2.09h-6.38c0-.39-.03-.68.12-.77s.76-.33.84-.48l.02-6.66c-.57-.28-.79-.3-1.13-.97l6.55-.08-.08,2.15c-.87.07-.89-.45-1.01-1.17l-3.16-.06v2.91l2.34.02c.22,0,.6.24.61.42s-.42.49-.64.49h-2.32,0Z"/>
  <path d="M142.85,79.3c.67-.06,1.75-.33,2.29-.48.23-.07.47.71.26.82-1.14.58-2.96.91-4.27.51-3.14-.95-2.98-6.5-.91-8.21,1.46-1.21,3.78-1.06,5.31-.15.13.59.07,1.77-.34,1.99-.71.38-.74-.63-.97-1.01-.56-.95-2.75-1-3.45-.01-.96,1.35-.93,3.27-.46,4.77.33,1.04,1.21,1.87,2.54,1.76h0Z"/>
  <path d="M272.71,80.21l-3.14-.03c-.28-.51.3-.94.98-1l.04-6.93c-.59-.15-1.66-.23-2.04.1-.1.12-.17.65-.22.8s-.38.17-.8.22l-.12-2.09h7.44l-.14,2.04c-.8.35-.78-.54-1.01-.97-.34-.35-1.46-.25-2.04-.11l.04,6.94c.64.09,1.18.27,1.02,1.02h0Z"/>
  <path d="M291.73,78.13c.06.47.08,1.44.08,2.09h-5.77c-.18-.01-.27-.71-.14-.77l.86-.34v-6.73c-.5-.29-.66-.34-1.2-1.04l3.39-.04c.22.6-.28.89-1.02.89l-.04,7.07,2.81-.07.2-1.04c.04-.2.8-.22.82-.02h.01Z"/>
  <path d="M246.87,80.12l-3.36.06c-.22-.55.28-.88.97-.99v-6.99l-.89-.2c-.14-.03-.08-.45-.06-.7h3.02c.25.45-.28.87-.9.96l-.03,6.68c.49.37.46.28,1.25,1.17h0Z"/>
  <path d="M216.41,15.66c-.68.46-1.81.03-1.95-.8l3.6-3.14,1.41,1.87-3.06,2.07h0Z"/>
  <path d="M195.41,68.85c.11-.09.52.34.43.45l-.57.72c-.26.33-.8.87-1.16.91-.7.08-2.45-1.9-1.69-2.25l1.62,1.25,1.36-1.08h.01Z"/>
  <path d="M314.94,70.72c-.21.15-.91-.02-1-.27l2-1.75c.22-.19.94.61.71.78l-1.7,1.24h0Z"/>
  <path d="M261.53,87.5c.24.53-2.5,2.31-2.78,1.39l2.07-1.84c.13-.12.63.28.7.45h0Z"/>
  <path class="st0" d="M82.4,55.57c-5.91-2.85-10.82-6.96-16.92-9.76-.69.2-1.32,1.31-1.19,1.92,2.14,2.29,4.13,4.34,6.38,6.46l11.21,10.58c-1.53,1.61-3.91,2.99-6.31,2.33-2.53-.68-8.59-8.72-10.54-11.12l-5.44-6.67c-.69-.16-1.72.24-2.2.69-.53.49-.63,1.57-.75,2.25-1.64,1.62-3.26,3.24-4.29,5.29-1.3,2.57-.35,5.16,2.43,6.36l-6.22,5.57-6.24-5.6c2.71-1.21,3.73-3.74,2.44-6.3-1.05-2.11-2.7-3.75-4.37-5.38-.05-.74-.2-1.68-.67-2.16-.43-.44-1.53-.89-2.18-.71-3.21,3.25-12.54,16.72-15.98,17.75-2.38.71-4.71-.68-6.37-2.29,5.99-5.66,11.93-11.05,17.6-17.05.24-.59-.5-1.71-1.17-1.96-6.03,2.77-11.19,7.06-17.06,9.83-3.2,1.51-5.62-1.29-6.75-3.92l22.15-9.78c-.27-.92-.56-1.72-.94-2.65l-11.11,2.44c-1.95.43-3.89.62-5.89.76-2.83.2-3.91-3.21-4.22-5.63,7.12-.37,14.05-.89,21.21-1.83l.85-2.6c-3.26-.2-13.27.43-15.28-1.44-1.6-1.48-1.87-3.68-1.93-5.77,6.26,2.05,12.61,2.97,19.23,3.12.58-.53,1-1.07,1.46-1.9l-7.77-1.49c-4.31-.83-6.08-1.14-7.2-6.28,5.27,1.85,10.57,3.22,16.11,4.24,1.83.34,3.41-.38,4.36-1.95,1.82,2.35,1.43,5.46-.76,7.53-1.15,1.08-1.97,2.22-2.18,3.88-.24,1.96-.36,3.95-.29,5.9l4.96,2.37,5.84-4.37c1.03-.77,1.68-2.36,1.5-3.56-.24-1.57-1.68-2.8-3.2-2.21-.65.25-1.3.79-1.94,1.25-.67-1.85-.63-3.61.04-5.35l2.62-1.34,6.49-.05c.17,4.73,3.17,4.56,3.22,10.45,0,1.12-.03,5.06,1.49,5.14l4.85-2.33c.12-2.21,0-4.32-.38-6.49-.23-1.37-1.08-2.34-2.03-3.25-2.19-2.1-2.66-5.19-.79-7.57.99,1.66,2.7,2.28,4.6,1.91,5.4-1.05,10.56-2.31,15.87-4.24-1.07,4.87-2.58,5.42-6.75,6.22l-8.21,1.58c.45.85.89,1.41,1.48,1.91,6.59-.16,12.88-1.03,19.2-3.12-.04,2.07-.33,4.28-1.91,5.76-2.04,1.9-11.92,1.24-15.28,1.47l.85,2.59c7.13.91,13.99,1.45,21.19,1.81-.34,2.42-1.3,5.89-4.42,5.64-2.05-.17-4.05-.39-6.05-.83l-10.73-2.37c-.39.87-.7,1.71-.95,2.65l22.13,9.78c-1.25,2.84-3.65,5.42-6.89,3.87v.02ZM47.79,26.78l-2.3.11c.18.75.8,1.15,1.27.87.35-.21.62-.49,1.03-.98ZM48.54,50.81l2.43-5.86-2.46-1.77-2.4,1.77,2.43,5.86Z"/>
  <path class="st0" d="M69.99,83c-3.24-3.43-9.55-2.83-13.45-.48-2.6,1.57-4.38,3.78-6.13,6.3l-1.86-1.94-1.88,1.94c-1.7-2.42-3.45-4.65-5.97-6.21-4.44-2.75-10.61-2.74-13.55.27l1.82-4.29c-1.3.22-1.93.38-3.3.78l11.65-19.71,1.19,1.29-5.59,11.79c7.23,3.66,10.76,7.73,15.59,13.89l4.08-4.94c3.13-3.8,7-6.67,11.53-8.95l-5.59-11.85c.43-.42.74-.7,1.26-1.12l11.6,19.62c-.96-.33-1.88-.58-3.23-.77l1.81,4.36.02.02Z"/>
  <polygon class="st0" points="50.39 16.64 52.23 13.92 52.3 19.64 44.77 19.61 44.82 13.87 46.7 16.66 48.54 13.82 50.39 16.64"/>
  <path class="st0" d="M224.97,93.34c-.54.31-1.45.27-2.1.23v-3.02c.76-.06,1.65-.08,2.23.31.75.49.77,1.96-.14,2.48h.01Z"/>
  <polygon class="st0" points="132.94 94.69 130.35 94.75 131.63 91.12 132.94 94.69"/>
  <polygon class="st0" points="215.84 94.69 213.3 94.75 214.53 90.93 215.84 94.69"/>
  <polygon class="st0" points="178.82 94.68 176.22 94.76 177.52 91.16 178.82 94.68"/>
  <path class="st0" d="M205.73,48.71c-.75.75-2.04.54-3.1.53l-.05-4.38c1.03-.19,2.47-.35,3.3.54.67.72.67,2.49-.14,3.3h0Z"/>
  <polygon class="st0" points="263.84 51.15 260.62 51.21 262.22 46.4 263.84 51.15"/>
  <polygon class="st0" points="217.39 25.09 214.22 25.14 215.76 20.41 217.39 25.09"/>
  <path class="st0" d="M174.92,78.42c-.9,1.15-2.46.86-3.46.74l.02-6.92c1.08-.04,2.67-.32,3.49.69,1.11,1.37,1.07,4.04-.05,5.49Z"/>
  <path class="st0" d="M228.1,78.22c-.79,1.3-2.53,1.11-3.64.93l.02-6.91c1.14-.05,2.79-.33,3.58.77.97,1.36.95,3.72.04,5.21Z"/>
  <path class="st0" d="M134.69,79.05c-.75.28-1.68.22-2.54.21v-3.2c.88-.07,1.9-.13,2.71.26.95.46.96,2.31-.17,2.73h0Z"/>
  <path class="st0" d="M134.43,74.73c-.63.44-1.47.42-2.26.39l-.02-2.91c.68-.15,1.74-.08,2.37.37.55.39.55,1.7-.09,2.15Z"/>
  <path class="st0" d="M165,78.46c-.52,1-1.9,1.03-2.74.81-2.45-.65-2.43-4.59-1.4-6.35.54-.93,1.93-.96,2.87-.68,2.18.65,2.27,4.32,1.27,6.23h0Z"/>
  <path class="st0" d="M218.04,78.44c-.47.95-1.79,1.03-2.58.87-2.66-.53-2.61-4.55-1.61-6.37.52-.95,1.91-.99,2.88-.71,2.22.63,2.24,4.34,1.31,6.21Z"/>
  <path class="st0" d="M125.7,78.48c-.55.99-1.93,1-2.77.77-2.37-.66-2.38-4.51-1.39-6.3.53-.96,1.88-1.01,2.9-.73,2.11.58,2.32,4.31,1.25,6.26h0Z"/>
  <polygon class="st0" points="315.72 76.33 313.13 76.33 314.43 72.79 315.72 76.33"/>
  <polygon class="st0" points="263.17 76.28 260.59 76.34 261.86 72.75 263.17 76.28"/>
  <path class="st0" d="M208,72.35c1.13.48.89,1.86.56,2.66s-1.79,1.13-2.52.71l-.03-3.52c.55-.07,1.42-.09,2,.15h0Z"/>
  <polygon class="st1" points="48.54 50.81 46.12 44.95 48.51 43.18 50.97 44.95 48.54 50.81"/>
  <path class="st1" d="M47.79,26.78c-.41.49-.68.77-1.03.98-.47.28-1.08-.12-1.27-.87,0,0,2.3-.11,2.3-.11Z"/>
</svg>